<?xml version="1.0" standalone="no"?>
<!DOCTYPE svg PUBLIC "-//W3C//DTD SVG 20010904//EN"
 "http://www.w3.org/TR/2001/REC-SVG-20010904/DTD/svg10.dtd">
<svg version="1.0" xmlns="http://www.w3.org/2000/svg"
 width="2048.000000pt" height="2048.000000pt" viewBox="0 0 2048.000000 2048.000000"
 preserveAspectRatio="xMidYMid meet">
<metadata>
Created by potrace 1.14, written by Peter Selinger 2001-2017
</metadata>
<g transform="translate(0.000000,2048.000000) scale(0.100000,-0.100000)"
fill="#000000" stroke="none">
<path d="M9880 20375 c-58 -8 -134 -19 -170 -25 -36 -7 -72 -13 -80 -15 -29
-4 -76 -17 -135 -35 -33 -10 -82 -25 -110 -33 -27 -9 -49 -20 -48 -25 1 -5 -8
-10 -20 -10 -12 0 -51 -12 -86 -27 -36 -15 -70 -28 -76 -29 -7 -1 -24 -9 -38
-19 -15 -9 -31 -17 -36 -17 -6 0 -31 -11 -56 -25 -25 -14 -45 -22 -45 -18 0 4
-5 1 -10 -7 -5 -8 -14 -16 -20 -16 -5 -1 -15 -2 -21 -3 -5 0 -7 -6 -3 -13 4
-6 3 -8 -3 -5 -6 4 -22 -2 -36 -13 -14 -11 -30 -20 -35 -20 -6 0 -24 -12 -41
-26 -17 -14 -31 -22 -31 -17 0 4 -4 4 -8 -2 -4 -5 -14 -14 -23 -20 -69 -43
-137 -91 -155 -109 -12 -11 -32 -28 -44 -36 -181 -118 -442 -462 -428 -561 4
-22 1 -29 -9 -25 -60 23 -136 36 -243 41 -69 3 -143 7 -165 8 -22 2 -51 -3
-65 -10 -17 -9 -26 -9 -31 -1 -4 6 -12 7 -19 3 -7 -5 -49 -9 -94 -11 -45 -1
-105 -7 -135 -13 -29 -6 -55 -11 -57 -11 -1 0 -10 -7 -18 -16 -9 -8 -16 -11
-16 -5 0 13 -44 4 -75 -14 -11 -7 -33 -16 -50 -20 -48 -11 -130 -51 -187 -92
-77 -55 -85 -63 -131 -123 -23 -30 -45 -57 -49 -60 -4 -3 -14 -22 -22 -42 -9
-20 -21 -38 -27 -40 -6 -2 -12 -15 -12 -30 -1 -14 -6 -26 -11 -25 -4 1 -25
-50 -46 -113 -21 -63 -52 -148 -69 -188 -17 -40 -36 -99 -43 -132 -6 -33 -17
-60 -23 -60 -5 0 -23 7 -38 15 -15 8 -35 11 -44 8 -11 -4 -14 -3 -9 5 4 7 4
13 -1 13 -4 1 -17 3 -28 4 -11 2 -38 6 -61 10 -31 5 -44 3 -57 -9 -9 -10 -18
-12 -22 -6 -7 11 -58 -12 -83 -36 -7 -8 -18 -14 -23 -14 -6 0 -7 -4 -4 -10 3
-5 1 -10 -6 -10 -6 0 -50 -39 -98 -87 -120 -122 -163 -159 -210 -184 -23 -11
-41 -25 -41 -29 0 -10 -45 -39 -67 -43 -10 -2 -33 -11 -52 -21 -19 -10 -30
-13 -26 -5 5 7 4 10 -1 8 -13 -7 -54 -24 -88 -38 -26 -11 -48 -14 -161 -28
-22 -2 -77 -5 -122 -5 -46 -1 -83 -5 -83 -9 0 -11 -23 -7 -31 4 -3 5 -21 8
-40 9 -19 0 -44 6 -56 14 -20 12 -54 23 -96 28 -9 1 -30 12 -47 24 -16 12 -35
22 -43 22 -31 0 -82 36 -148 103 -38 39 -69 74 -69 79 0 4 -5 8 -11 8 -12 0
-65 60 -62 70 1 4 -15 23 -35 43 -32 32 -41 35 -67 29 -19 -5 -32 -17 -38 -36
-12 -36 0 -96 18 -96 10 0 14 -8 11 -22 -2 -14 5 -29 18 -40 12 -9 17 -17 11
-18 -5 0 1 -7 13 -16 12 -8 22 -24 22 -35 0 -10 5 -19 10 -19 6 0 10 -5 10
-11 0 -7 9 -20 21 -30 11 -9 20 -20 20 -23 -3 -24 1 -36 9 -31 6 3 10 -2 10
-12 0 -10 13 -31 30 -46 16 -16 30 -35 30 -43 0 -9 5 -12 10 -9 6 3 10 -3 10
-14 0 -11 9 -26 19 -33 11 -8 23 -27 27 -42 4 -16 15 -31 25 -33 11 -3 19 -9
19 -14 0 -14 115 -129 129 -129 7 0 9 -4 6 -10 -3 -5 3 -10 14 -10 12 0 21 -5
21 -11 0 -5 4 -8 9 -5 5 4 11 2 13 -3 5 -13 164 -61 203 -61 l34 0 -30 -70
c-16 -39 -38 -79 -49 -90 -19 -19 -19 -19 -13 11 6 30 5 31 -16 19 -12 -6 -21
-16 -18 -23 2 -6 -2 -18 -10 -27 -7 -8 -18 -23 -25 -32 -12 -17 -66 -32 -153
-43 -79 -10 -111 -14 -165 -20 -70 -8 -277 -77 -329 -109 -21 -14 -42 -22 -45
-19 -3 4 -6 1 -6 -5 0 -6 -10 -14 -21 -17 -26 -9 -127 -84 -188 -140 -42 -39
-161 -179 -161 -190 0 -4 -13 -20 -30 -38 -16 -18 -30 -40 -30 -49 0 -10 -4
-18 -10 -18 -5 0 -10 -5 -10 -10 0 -6 -9 -20 -19 -31 -11 -12 -22 -33 -26 -47
-4 -15 -10 -29 -14 -32 -8 -6 -64 -118 -67 -136 -1 -6 -9 -27 -17 -45 -41 -91
-92 -284 -108 -409 -6 -47 -15 -96 -20 -110 -5 -14 -11 -52 -14 -85 -4 -33
-18 -125 -32 -205 -14 -80 -27 -158 -28 -175 -2 -16 -9 -57 -15 -90 -6 -33
-15 -89 -20 -125 -5 -36 -14 -83 -19 -105 -6 -22 -12 -67 -15 -100 -2 -33 -9
-83 -16 -111 -6 -28 -10 -55 -8 -60 1 -5 -3 -25 -9 -44 -6 -19 -14 -57 -18
-85 -8 -67 -93 -334 -139 -438 -14 -32 -26 -62 -26 -68 0 -5 -25 -62 -55 -124
-30 -63 -55 -119 -55 -125 0 -5 -4 -10 -10 -10 -5 0 -23 -29 -41 -65 -17 -36
-35 -65 -40 -65 -5 0 -9 -5 -9 -11 0 -6 -20 -35 -44 -65 -25 -30 -48 -63 -51
-74 -4 -11 -13 -20 -21 -20 -8 0 -14 -7 -14 -15 0 -8 -7 -15 -15 -15 -8 0 -15
-6 -15 -12 0 -7 -16 -24 -35 -37 -19 -13 -35 -27 -35 -32 0 -5 -4 -9 -10 -9
-5 0 -31 -20 -57 -45 -104 -98 -148 -135 -159 -135 -6 0 -34 -24 -62 -54 -28
-29 -53 -52 -56 -49 -2 3 -36 -26 -74 -64 -38 -37 -80 -77 -93 -89 -42 -36
-144 -155 -141 -165 1 -5 -4 -9 -12 -9 -8 0 -28 -19 -45 -42 -17 -24 -39 -54
-48 -67 -10 -14 -33 -42 -50 -64 -18 -21 -33 -42 -33 -45 0 -4 -13 -21 -29
-38 -16 -16 -32 -40 -35 -52 -4 -12 -12 -22 -18 -22 -6 0 -8 -9 -5 -20 3 -11
2 -18 -3 -15 -4 3 -15 -6 -24 -20 -9 -14 -13 -25 -9 -25 4 0 -1 -6 -10 -12 -9
-7 -30 -47 -47 -88 -17 -41 -37 -88 -45 -105 -46 -100 -65 -146 -65 -159 0 -8
-4 -17 -9 -21 -5 -3 -17 -31 -26 -63 -8 -31 -20 -65 -25 -74 -6 -10 -10 -27
-10 -37 0 -11 -5 -23 -10 -26 -6 -3 -10 -15 -10 -25 0 -11 -6 -34 -14 -52 -26
-60 -68 -217 -126 -463 -10 -44 -22 -93 -26 -110 -4 -16 -9 -34 -9 -40 -1 -5
-5 -17 -8 -25 -9 -25 -28 -132 -30 -172 -1 -21 -6 -38 -11 -38 -5 0 -6 -3 -3
-6 3 -4 2 -14 -2 -23 -5 -9 -12 -40 -15 -70 -3 -29 -8 -57 -11 -61 -3 -5 -7
-21 -9 -37 -2 -15 -6 -44 -10 -63 -3 -19 -8 -53 -10 -75 -3 -22 -9 -62 -15
-90 -11 -51 -17 -122 -28 -305 -8 -157 -4 -269 13 -321 8 -26 14 -51 12 -55
-4 -14 23 -84 32 -84 5 0 16 -3 26 -7 13 -5 16 -3 11 10 -3 9 -3 17 1 17 5 0
16 -32 27 -71 10 -39 37 -108 60 -154 l42 -83 -28 -139 c-16 -76 -28 -156 -29
-179 0 -22 -3 -44 -7 -48 -4 -4 -8 -40 -9 -80 0 -40 -3 -77 -6 -82 -5 -10 -2
-146 4 -184 2 -14 0 -31 -5 -38 -12 -15 20 -105 34 -97 5 4 6 -2 2 -11 -4 -11
-8 -13 -11 -6 -2 7 -8 12 -14 12 -6 0 -7 -8 -3 -17 4 -10 8 -23 9 -30 1 -7 5
-16 9 -19 12 -12 8 -26 -6 -18 -9 6 -9 4 1 -7 14 -16 16 -33 2 -24 -5 3 -10 2
-10 -4 0 -5 4 -12 8 -15 5 -3 10 -29 11 -58 1 -29 8 -62 16 -74 8 -13 17 -41
21 -63 4 -23 11 -41 16 -41 5 0 7 -4 4 -9 -3 -5 1 -22 9 -37 10 -20 15 -23 15
-11 0 9 4 17 10 17 5 0 7 -7 4 -15 -3 -8 -2 -20 2 -27 8 -12 10 -17 13 -36 0
-5 15 -24 31 -42 17 -18 30 -40 30 -47 0 -8 16 -21 35 -29 20 -8 35 -20 34
-27 -3 -25 1 -38 11 -32 5 3 10 1 10 -4 0 -6 5 -11 11 -11 6 0 31 -15 57 -32
26 -18 50 -33 54 -33 4 0 17 -8 28 -18 11 -9 23 -17 26 -17 4 0 24 -16 46 -36
26 -23 47 -34 59 -31 10 3 22 1 25 -5 4 -5 25 -22 49 -37 l42 -27 -23 -44
c-13 -25 -28 -56 -34 -70 -18 -44 -52 -105 -64 -115 -6 -6 -27 -42 -47 -80
-76 -147 -94 -180 -100 -185 -11 -9 -129 -241 -129 -254 0 -8 -9 -25 -21 -40
-11 -14 -18 -26 -15 -26 6 0 -43 -122 -55 -135 -5 -5 -9 -18 -9 -30 0 -11 -6
-29 -14 -40 -12 -18 -86 -229 -86 -247 0 -4 -11 -31 -24 -60 -13 -29 -31 -75
-41 -103 -9 -27 -21 -59 -25 -70 -18 -40 -70 -211 -76 -247 -4 -21 -10 -38
-15 -38 -5 0 -9 -11 -9 -25 0 -15 -7 -40 -16 -56 -8 -17 -17 -45 -19 -62 -1
-18 -8 -44 -14 -59 -6 -15 -13 -49 -17 -75 -3 -27 -10 -55 -15 -64 -11 -22
-31 -187 -24 -199 4 -6 1 -10 -5 -10 -6 0 -10 -8 -9 -18 1 -9 0 -19 -1 -22 -2
-5 -4 -25 -14 -135 -4 -38 -9 -88 -11 -110 -10 -86 -13 -467 -5 -600 11 -176
37 -373 56 -425 3 -8 8 -31 10 -50 6 -50 36 -150 46 -150 4 0 5 -6 3 -13 -3
-7 3 -29 14 -49 10 -21 15 -35 10 -32 -5 3 -1 -9 9 -28 10 -18 25 -54 32 -80
8 -27 20 -48 26 -48 12 0 29 -28 26 -43 -1 -4 3 -7 8 -7 11 0 18 -5 63 -44 15
-13 40 -29 56 -36 16 -6 53 -35 82 -63 45 -43 68 -57 134 -78 56 -18 80 -30
80 -41 0 -9 4 -20 8 -24 4 -4 7 -15 7 -25 0 -23 75 -186 95 -205 9 -9 22 -29
30 -45 9 -16 20 -29 25 -29 6 0 10 -7 10 -16 0 -8 5 -12 10 -9 6 3 10 -1 10
-10 0 -8 8 -19 17 -22 10 -4 28 -20 41 -35 14 -16 34 -28 48 -28 13 0 24 -4
24 -9 0 -10 39 -27 52 -23 4 1 19 -3 32 -8 14 -5 28 -5 31 -1 3 5 20 4 39 -1
19 -6 43 -7 53 -3 25 11 36 13 135 24 148 18 216 49 314 143 47 46 54 49 88
43 26 -5 36 -12 36 -26 0 -11 7 -19 15 -19 8 0 15 -9 15 -19 0 -11 11 -32 24
-48 13 -15 27 -39 31 -53 12 -39 63 -98 122 -141 60 -45 207 -119 235 -119 10
0 18 -4 18 -9 0 -9 8 -10 132 -11 43 -1 78 -4 78 -6 0 -8 -239 -434 -268 -479
-33 -50 -41 -62 -94 -150 -23 -38 -45 -72 -48 -75 -14 -12 -50 -79 -50 -93 0
-8 -7 -17 -15 -20 -8 -4 -23 -23 -33 -44 -11 -21 -41 -73 -68 -116 -27 -43
-56 -91 -66 -108 -9 -17 -22 -38 -30 -47 -7 -9 -18 -26 -24 -37 -26 -48 -63
-112 -80 -141 -10 -17 -32 -53 -48 -80 -16 -27 -37 -61 -47 -76 -11 -15 -19
-31 -19 -37 0 -7 -39 -77 -90 -161 -75 -124 -332 -618 -336 -648 -1 -7 -12
-28 -23 -48 -12 -19 -21 -39 -21 -45 0 -5 3124 -9 8340 -9 7525 0 8340 2 8340
15 0 9 -7 29 -15 45 -9 17 -13 30 -9 30 4 0 1 7 -6 15 -7 8 -10 15 -7 15 6 0
-5 30 -43 115 -26 61 -33 78 -37 99 -2 11 -8 25 -14 33 -6 7 -9 13 -5 13 3 0
-5 22 -19 50 -14 27 -25 54 -25 60 0 11 -49 146 -75 205 -29 69 -35 88 -31 93
3 2 -5 25 -18 51 -13 25 -35 82 -50 126 -45 130 -68 176 -81 165 -9 -8 -11 -4
-8 14 3 15 -10 50 -36 99 -23 42 -41 83 -41 90 0 8 -7 20 -15 27 -8 7 -12 16
-9 21 3 5 -2 12 -10 15 -9 3 -13 10 -10 15 3 5 0 9 -6 9 -6 0 -15 12 -21 28
-26 64 -62 132 -70 132 -5 0 -9 9 -9 20 0 11 -7 23 -15 26 -8 4 -15 14 -15 24
0 9 -10 30 -22 46 -12 15 -23 34 -24 41 -1 7 -14 27 -28 44 -14 17 -26 37 -26
45 0 8 -7 14 -15 14 -8 0 -15 6 -15 14 0 7 -18 41 -40 74 -22 33 -40 62 -40
66 0 3 -9 16 -20 29 -41 46 -50 57 -49 63 1 10 -102 154 -112 154 -5 0 -9 8
-9 18 0 10 -16 33 -35 52 -19 19 -35 37 -35 41 0 12 -53 89 -62 89 -4 0 -8 7
-8 15 0 9 -11 21 -25 27 -14 6 -25 20 -25 30 0 10 -10 22 -22 27 -13 5 -22 11
-20 15 5 14 1 23 -27 54 -17 17 -28 32 -25 32 3 0 -4 12 -16 28 l-22 27 99 7
c154 10 274 58 423 168 108 81 205 180 266 272 26 40 66 96 88 123 21 28 49
70 60 95 12 25 33 65 48 90 27 47 69 141 109 245 13 33 27 65 31 71 5 6 6 19
2 28 -3 9 -2 22 4 29 5 6 10 19 10 27 1 8 6 42 12 75 56 310 61 353 70 634 9
263 20 361 42 361 4 0 8 6 8 13 0 18 37 94 50 102 6 4 8 11 5 16 -4 5 -2 9 4
9 6 0 8 6 5 14 -3 8 -1 17 5 21 6 3 11 18 11 33 0 16 8 32 20 40 11 7 19 22
18 35 -1 20 18 70 41 107 14 22 24 52 27 80 5 44 15 94 23 115 29 73 34 94 33
128 -1 21 5 55 14 75 8 20 17 68 19 107 5 89 14 138 25 145 5 3 5 12 0 20 -5
8 -5 21 1 31 6 11 5 20 0 24 -6 3 -4 20 5 40 8 20 10 35 4 35 -6 0 -6 9 0 25
9 25 6 121 -6 158 -3 10 0 24 6 32 10 12 10 15 0 15 -8 0 -11 11 -8 31 3 20 0
33 -8 36 -9 3 -11 15 -7 34 3 17 -1 43 -12 65 -9 20 -15 44 -12 55 3 10 1 19
-5 19 -5 0 -6 4 -3 10 3 5 -1 19 -9 31 -8 12 -12 27 -9 35 3 7 -2 21 -11 30
-9 8 -13 20 -10 26 4 6 -1 17 -10 24 -10 7 -18 18 -20 26 -1 7 -5 18 -9 24 -4
7 -8 28 -9 48 -2 21 -8 36 -15 36 -7 0 -13 10 -13 23 0 12 -6 31 -13 42 -8 11
-22 43 -32 70 -20 54 -84 172 -122 221 -13 17 -23 36 -23 42 0 6 -11 23 -24
39 -13 15 -26 38 -30 51 -4 12 -12 20 -17 16 -6 -3 -13 3 -16 15 -3 12 -9 21
-14 21 -4 0 -7 8 -7 18 1 9 -11 41 -25 71 -15 30 -27 61 -27 68 0 7 -3 13 -8
13 -22 0 -65 182 -67 290 -2 47 -4 87 -5 90 -8 17 -3 58 9 72 7 10 11 26 9 36
-3 11 -1 44 3 73 5 30 11 68 14 84 14 98 40 185 78 261 l43 86 49 -42 c39 -34
53 -40 74 -35 48 12 93 47 123 96 16 27 34 47 39 43 5 -3 7 -10 4 -15 -15 -23
15 -5 50 31 37 37 81 104 104 157 5 11 15 24 20 28 6 3 11 17 11 30 0 13 4 25
8 27 5 2 26 48 47 103 21 55 45 107 52 116 7 8 13 25 13 37 0 11 5 24 10 27 6
4 8 11 4 16 -3 5 -1 16 6 23 6 8 13 22 15 32 2 11 14 44 25 74 12 30 22 62 22
70 1 8 9 26 20 39 10 13 18 39 18 57 0 18 4 35 9 38 14 9 112 329 114 374 0 6
4 12 9 12 4 0 7 10 7 23 0 12 4 38 9 57 5 20 7 46 6 58 -2 12 1 22 6 22 6 0 9
3 9 8 -1 4 0 9 1 12 5 14 10 59 10 90 0 20 6 54 14 77 9 26 13 62 10 98 -3 36
-1 62 7 71 7 9 10 32 6 63 -3 27 -3 51 0 55 5 5 7 48 4 103 0 12 -9 30 -18 39
-17 17 -17 18 0 11 15 -6 16 -1 10 51 -4 31 -7 77 -8 102 0 27 -6 50 -15 58
-10 9 -10 11 -1 6 10 -5 11 -1 5 17 -4 13 -8 38 -9 54 -1 17 -7 48 -13 71 -7
23 -12 52 -12 65 -1 60 -2 69 -10 74 -5 3 -6 13 -3 22 5 13 2 15 -12 10 -15
-6 -16 -5 -5 8 10 12 9 16 -3 21 -9 3 -13 12 -10 20 3 8 0 14 -6 14 -7 0 -9
10 -5 26 5 20 4 25 -6 19 -9 -5 -10 -2 -5 14 4 13 1 28 -6 37 -10 12 -10 17
-1 23 9 5 8 12 -3 27 -8 10 -15 29 -15 42 0 12 -4 22 -8 22 -4 0 -14 27 -20
60 -7 33 -18 60 -23 60 -6 0 -8 7 -5 16 3 9 -2 35 -12 57 -10 23 -19 45 -20
50 -1 4 -8 20 -15 35 -34 65 -50 109 -50 135 0 15 -4 27 -8 27 -5 0 -9 9 -9
19 0 11 -9 23 -20 26 -22 7 -27 25 -7 25 8 0 9 2 1 8 -6 4 -15 26 -19 50 -4
23 -11 42 -16 42 -5 0 -9 9 -9 19 0 10 -7 22 -16 25 -8 3 -12 11 -8 17 3 6 0
15 -7 20 -8 4 -14 19 -15 31 -1 32 -14 68 -25 68 -5 0 -9 9 -9 19 0 11 -6 26
-13 33 -19 20 -52 72 -53 83 -1 19 -39 90 -51 98 -7 4 -13 17 -13 27 0 10 -5
22 -11 25 -6 4 -8 14 -5 22 3 8 2 12 -3 9 -9 -6 -26 22 -23 37 1 4 -2 7 -8 7
-5 0 -10 7 -10 15 0 8 -13 29 -29 46 -17 17 -33 44 -36 60 -4 16 -15 35 -24
41 -20 14 -47 58 -43 71 1 4 -4 10 -12 13 -8 3 -12 12 -9 20 3 8 0 14 -6 14
-6 0 -11 7 -11 15 0 8 -4 15 -10 15 -5 0 -17 16 -26 35 -9 19 -29 46 -44 59
-15 12 -35 37 -44 54 -9 17 -22 35 -29 39 -6 4 -18 20 -26 35 -8 15 -28 43
-45 61 -17 19 -51 56 -76 83 -24 27 -44 54 -45 60 0 7 -12 24 -27 39 -16 15
-28 32 -28 37 0 6 -8 7 -17 4 -10 -4 -14 -4 -11 0 4 4 -8 26 -27 49 -19 23
-35 47 -35 54 0 6 -6 11 -12 12 -7 0 -28 18 -47 40 -24 28 -49 83 -90 201 -69
196 -188 445 -250 524 -12 15 -19 30 -16 34 3 4 -7 15 -20 24 -14 9 -23 20
-21 25 3 4 -4 18 -15 29 -11 12 -17 22 -13 22 4 0 -3 8 -14 19 -12 10 -22 21
-22 25 0 4 -18 23 -41 44 -122 112 -123 114 -108 122 22 13 121 91 155 122 38
36 106 89 170 131 29 20 64 56 83 86 18 28 37 51 42 51 5 0 9 6 9 14 0 8 3 16
8 18 10 4 50 62 63 90 14 31 32 63 47 81 7 9 14 25 15 36 1 12 5 21 10 21 4 0
5 4 2 10 -3 5 3 31 14 57 11 26 22 73 24 104 2 30 6 60 9 65 3 5 4 47 2 94 -3
47 -5 102 -6 123 -1 20 -4 37 -7 37 -8 0 -10 48 -11 185 -1 93 -3 107 -42 200
-22 54 -41 111 -43 125 -1 14 -9 46 -18 72 -8 26 -12 49 -9 52 2 3 -3 8 -12
12 -9 3 -16 15 -16 25 0 10 -7 19 -15 19 -9 0 -18 7 -21 15 -4 9 -15 13 -30
11 -37 -7 -43 -14 -55 -62 -6 -24 -15 -44 -20 -44 -5 0 -9 -9 -9 -20 0 -11 -5
-20 -11 -20 -8 0 -7 -5 1 -15 11 -13 10 -14 -3 -10 -10 4 -17 -1 -22 -15 -4
-11 -18 -28 -31 -37 -20 -13 -22 -18 -12 -31 11 -13 10 -14 -10 -8 -21 7 -28
-1 -22 -29 1 -5 -1 -7 -5 -3 -10 10 -76 -53 -68 -65 4 -6 0 -8 -10 -4 -10 4
-36 -6 -64 -23 -66 -40 -198 -92 -242 -94 -20 -1 -46 -7 -58 -14 -13 -7 -23
-9 -23 -4 0 10 -68 8 -94 -3 -11 -5 -21 -3 -26 5 -6 9 -9 9 -15 1 -5 -9 -11
-9 -23 1 -9 7 -13 8 -9 2 4 -7 0 -17 -7 -23 -10 -8 -16 -9 -21 -1 -3 5 -4 10
-1 10 2 0 -18 42 -46 93 -51 93 -102 227 -86 227 4 0 23 -14 41 -31 17 -17 51
-44 73 -60 l41 -28 11 23 c9 21 6 27 -24 52 -20 16 -45 37 -56 46 -11 10 -24
15 -28 13 -5 -3 -6 4 -3 15 3 11 0 20 -6 20 -6 0 -11 5 -11 11 0 16 -26 39
-44 39 -9 0 -15 4 -14 9 2 5 -12 23 -29 40 -18 17 -33 34 -33 37 0 2 -5 10
-10 17 -6 7 -37 53 -69 102 -31 50 -94 134 -139 188 -45 53 -119 141 -163 195
-45 53 -91 108 -103 122 -12 14 -32 42 -45 63 -12 20 -27 37 -33 37 -6 0 -8 6
-5 14 3 8 -7 26 -24 40 -16 14 -29 32 -29 40 0 8 -7 17 -16 20 -8 3 -13 10 -9
16 3 5 -3 18 -15 30 -11 11 -20 24 -20 30 0 5 -13 22 -28 37 -16 16 -33 42
-39 58 -11 32 -51 98 -78 128 -9 10 -13 23 -9 29 4 6 3 9 -2 6 -10 -5 -45 28
-37 35 7 8 -65 117 -78 117 -7 0 -9 9 -6 21 4 14 -2 28 -19 44 -13 12 -24 27
-24 33 0 6 -6 15 -12 19 -7 4 -13 13 -14 18 -3 23 -17 55 -25 55 -5 0 -9 6 -9
13 0 7 -13 28 -30 47 -16 18 -27 37 -24 42 3 4 -2 11 -10 14 -9 3 -14 9 -11
14 5 9 -84 146 -94 143 -4 -1 -8 8 -8 19 -1 12 -6 24 -10 27 -4 3 -17 24 -28
45 -11 21 -29 44 -40 50 -11 6 -22 12 -25 14 -2 2 1 6 7 10 9 5 4 17 -16 37
-15 17 -28 35 -30 40 -6 26 -34 75 -42 75 -5 0 -9 6 -9 13 0 7 -20 35 -45 61
-42 45 -49 58 -46 79 0 4 -6 7 -14 7 -8 0 -15 7 -15 15 0 8 -4 15 -10 15 -5 0
-10 9 -10 20 0 11 -4 20 -10 20 -5 0 -10 5 -10 10 0 6 -11 21 -23 33 -13 12
-36 40 -50 62 -14 22 -48 64 -76 93 -28 30 -51 55 -51 57 0 8 -201 197 -260
245 -36 29 -72 60 -80 69 -8 9 -60 49 -115 89 -55 40 -107 79 -115 85 -8 7
-35 23 -60 35 -25 13 -51 31 -57 40 -7 9 -13 12 -13 8 0 -5 -9 3 -21 18 -11
14 -25 24 -30 20 -5 -3 -12 2 -15 11 -4 9 -13 14 -20 11 -7 -3 -37 11 -66 30
-29 20 -67 42 -85 49 -19 8 -33 21 -33 31 0 10 -3 14 -6 11 -4 -3 -15 -2 -25
4 -14 7 -19 6 -19 -3 0 -9 -3 -9 -10 2 -9 15 -13 16 -45 19 -8 0 -14 4 -13 9
5 14 -50 59 -93 76 -24 10 -52 25 -62 34 -18 16 -37 22 -67 24 -8 0 -22 6 -30
13 -8 6 -31 18 -50 25 -19 7 -43 20 -52 28 -13 10 -18 11 -18 3 0 -8 -9 -5
-24 6 -13 10 -21 22 -18 27 3 5 0 6 -5 3 -6 -4 -16 0 -23 8 -7 9 -21 13 -31
10 -11 -4 -19 -2 -19 5 0 6 -8 10 -17 9 -10 -2 -28 3 -41 10 -13 7 -30 10 -37
7 -7 -2 -21 4 -30 14 -10 11 -22 17 -27 14 -5 -3 -15 1 -21 9 -13 16 -61 28
-119 30 -21 1 -38 4 -38 7 0 4 -6 7 -12 8 -23 2 -43 8 -63 19 -23 12 -76 25
-120 29 -16 1 -50 8 -75 14 -25 6 -75 12 -113 11 -50 0 -66 3 -60 12 4 8 1 8
-9 -1 -9 -7 -19 -9 -22 -4 -3 5 -29 5 -58 2 -34 -5 -55 -3 -60 3 -4 7 -12 6
-22 -2 -11 -9 -16 -10 -16 -2 0 15 -73 14 -88 -1 -8 -8 -15 -8 -25 0 -8 7 -17
9 -20 6 -5 -6 -59 -12 -162 -18 -24 -2 -39 -7 -37 -14 3 -15 -14 -16 -23 -2
-4 6 -11 8 -16 5 -8 -5 -95 -22 -156 -30 -12 -2 -27 -6 -33 -10 -6 -4 -21 -9
-33 -10 -77 -13 -167 -41 -272 -85 -78 -33 -182 -73 -192 -73 -7 0 -13 -4 -13
-9 0 -5 -16 -16 -35 -24 -19 -8 -35 -18 -35 -23 0 -5 -12 -12 -27 -16 -15 -3
-43 -20 -64 -36 -20 -16 -41 -29 -46 -29 -18 0 -186 -174 -177 -182 2 -3 -2
-11 -10 -17 -8 -7 -12 -19 -9 -27 5 -13 1 -13 -33 1 -21 8 -38 17 -39 18 -1 1
-30 54 -66 117 -100 179 -198 267 -334 302 -27 7 -72 29 -100 49 -90 66 -177
99 -295 114 -106 12 -311 12 -410 0z m-493 -3037 c-3 -8 -6 -5 -6 6 -1 11 2
17 5 13 3 -3 4 -12 1 -19z m28 2 c-4 -6 -4 -18 0 -28 5 -14 7 -14 15 -2 7 11
10 12 10 2 0 -7 5 -10 10 -7 6 4 8 11 5 16 -8 11 15 12 33 0 10 -6 15 -40 17
-112 2 -57 9 -122 14 -144 6 -22 13 -52 17 -68 4 -17 15 -29 29 -33 13 -3 26
-12 29 -19 3 -8 13 -11 25 -8 19 5 19 7 4 29 -9 14 -13 27 -9 31 3 4 0 16 -7
27 -19 29 -29 58 -18 51 5 -3 11 5 13 17 7 50 233 171 373 200 46 10 56 8 120
-18 56 -24 73 -36 88 -65 l19 -37 -26 -65 c-14 -36 -26 -78 -26 -94 0 -15 -4
-44 -10 -62 -5 -19 -8 -36 -6 -38 2 -2 106 22 232 53 160 39 245 65 281 85 39
22 59 28 80 23 15 -4 25 -3 20 1 -7 9 55 35 84 35 9 0 24 9 34 20 65 71 396
150 630 150 93 0 119 -4 168 -24 84 -35 193 -102 265 -162 l63 -53 50 38 c58
44 102 59 194 68 48 4 65 3 65 -6 0 -7 -9 -15 -20 -18 -35 -9 -16 -28 31 -30
24 -1 68 -4 96 -7 29 -2 55 -1 58 4 3 5 12 7 19 4 8 -3 17 -1 20 5 4 6 16 5
34 -5 24 -12 28 -12 34 4 4 9 7 12 7 6 1 -11 48 -22 126 -30 17 -1 68 -14 115
-29 47 -14 139 -39 205 -56 139 -34 237 -65 280 -87 18 -9 50 -14 79 -13 68 4
104 -14 115 -55 13 -46 3 -75 -58 -168 -28 -43 -51 -83 -51 -89 0 -6 44 -56
98 -111 132 -138 262 -331 262 -392 0 -28 -2 -28 43 -9 20 8 50 15 66 15 36 0
91 -20 74 -27 -18 -6 -16 -30 2 -41 9 -4 17 -18 20 -31 2 -13 15 -37 28 -55
13 -17 31 -48 41 -68 19 -42 64 -94 77 -91 4 2 6 -4 3 -12 -4 -8 -1 -15 7 -15
7 0 10 -3 6 -6 -6 -7 35 -50 45 -47 3 1 14 -14 23 -35 20 -43 45 -73 55 -67 3
2 13 -5 21 -16 12 -17 53 -64 115 -131 12 -12 13 -21 6 -35 -8 -14 -3 -37 19
-93 16 -41 40 -113 53 -160 14 -47 35 -116 47 -155 12 -38 22 -82 23 -97 1
-14 4 -24 9 -21 4 2 7 -7 7 -21 0 -38 0 -40 14 -56 7 -8 26 -50 41 -93 18 -50
46 -102 79 -144 28 -36 62 -82 76 -103 80 -121 167 -223 242 -283 27 -20 48
-40 48 -43 0 -4 -8 0 -17 7 -16 13 -17 12 -4 -3 7 -10 19 -18 27 -18 7 0 16
-9 19 -21 4 -12 13 -18 20 -15 7 2 21 -6 29 -20 9 -13 24 -24 32 -24 12 0 14
-5 9 -17 -9 -21 -8 -60 2 -76 4 -7 9 -23 11 -36 2 -14 8 -34 15 -45 6 -12 10
-31 8 -44 -1 -13 4 -25 13 -28 9 -3 13 -10 10 -15 -3 -5 2 -19 10 -31 9 -12
17 -19 17 -15 1 4 2 11 3 16 0 5 4 12 8 16 10 10 4 -17 -10 -42 -15 -26 -16
-53 -2 -53 6 0 10 -13 10 -28 0 -20 7 -33 23 -41 12 -6 14 -9 4 -7 -14 5 -16
2 -8 -13 6 -10 8 -21 5 -24 -3 -2 2 -21 10 -41 8 -20 13 -43 10 -51 -4 -8 -1
-15 4 -15 6 0 9 -10 7 -22 -3 -12 -1 -26 4 -32 10 -12 26 -77 23 -90 -2 -4 2
-14 8 -21 6 -7 8 -20 4 -29 -3 -9 -1 -23 6 -31 6 -7 10 -22 9 -32 -4 -24 10
-63 22 -63 6 0 6 -7 -1 -19 -7 -14 -6 -21 2 -23 8 -3 11 -23 9 -55 -2 -41 1
-53 16 -62 10 -6 12 -11 6 -11 -14 0 -8 -50 9 -83 9 -18 18 -64 22 -117 1 -14
5 -30 9 -36 4 -7 8 -28 9 -48 2 -20 8 -38 14 -40 6 -2 10 -16 9 -30 -2 -14 0
-26 3 -26 4 0 8 -23 9 -51 1 -28 6 -56 11 -62 6 -7 12 -30 15 -52 7 -46 16
-75 26 -75 3 0 6 -21 6 -47 0 -36 4 -47 18 -51 13 -3 15 -7 7 -12 -7 -4 -9
-13 -5 -20 5 -7 8 -37 8 -66 1 -30 5 -54 9 -54 5 0 6 -9 3 -20 -4 -12 -2 -20
5 -20 6 0 8 -5 5 -10 -3 -6 -3 -20 0 -31 l7 -21 20 21 c20 22 27 69 13 91 -6
9 -4 11 5 5 9 -6 11 0 6 21 -4 16 -8 54 -10 84 -2 30 -7 63 -11 72 -4 10 -8
29 -9 43 0 14 -4 25 -8 25 -3 0 -4 10 0 22 4 16 2 19 -8 13 -7 -5 -11 -4 -8 1
9 13 -7 130 -26 197 -9 32 -16 66 -16 76 0 10 -7 24 -15 31 -16 13 -16 40 -1
52 6 4 6 12 -1 20 -15 19 -31 92 -27 124 1 15 -3 39 -10 53 -7 14 -12 37 -11
51 1 14 -2 31 -7 38 -6 6 -7 12 -3 12 4 0 2 7 -5 15 -6 8 -9 19 -5 25 3 5 2
10 -3 10 -5 0 -9 11 -9 25 0 52 15 21 57 -115 24 -77 46 -140 49 -140 3 0 21
35 39 78 18 42 51 110 73 150 38 69 42 72 55 55 12 -14 16 -15 21 -4 4 9 8 10
12 3 9 -16 90 26 121 62 14 16 40 44 58 63 17 18 32 39 32 45 0 6 3 9 6 5 3
-3 23 13 45 36 90 97 125 125 193 159 54 26 72 30 151 30 86 1 139 -6 160 -22
6 -4 20 -6 33 -5 12 1 22 -2 22 -7 0 -4 9 -8 20 -8 11 0 20 -5 20 -11 0 -5 8
-9 18 -8 23 3 102 -22 102 -33 0 -4 6 -8 14 -8 7 0 19 -7 26 -15 7 -9 21 -13
31 -10 12 4 21 1 25 -8 5 -14 49 -33 67 -28 5 1 6 -3 2 -8 -3 -6 10 -17 30
-25 20 -9 43 -22 51 -31 9 -8 23 -15 33 -15 9 0 36 -18 60 -40 23 -22 47 -40
51 -40 5 0 14 -8 19 -18 5 -10 21 -24 35 -32 14 -7 26 -19 26 -26 0 -7 22 -36
49 -66 26 -29 51 -63 55 -75 4 -12 25 -41 47 -65 22 -24 42 -54 46 -68 3 -14
21 -49 40 -78 19 -29 36 -60 38 -70 2 -9 9 -30 16 -47 7 -16 11 -34 10 -39 -1
-4 7 -15 17 -25 10 -9 17 -22 14 -30 -3 -10 0 -11 9 -5 12 6 12 5 1 -8 -10
-13 -10 -17 4 -22 10 -4 14 -13 11 -26 -3 -10 -1 -20 5 -22 5 -2 10 -13 11
-26 0 -12 4 -22 8 -22 4 0 5 -9 2 -19 -3 -11 2 -29 10 -41 8 -12 13 -30 10
-41 -4 -14 0 -19 13 -19 16 0 16 -2 4 -10 -12 -7 -12 -11 3 -28 15 -16 16 -22
5 -33 -16 -16 -22 -62 -7 -54 5 4 9 -3 9 -14 0 -12 -4 -21 -9 -21 -9 0 -6 -73
3 -89 4 -5 2 -13 -4 -16 -6 -4 -10 -30 -9 -58 0 -29 -1 -69 -4 -89 -3 -21 -2
-38 3 -38 4 0 3 -19 -3 -41 -7 -30 -7 -47 1 -59 8 -13 7 -22 -3 -37 -7 -10
-16 -53 -18 -94 -3 -40 -7 -81 -10 -89 -3 -8 -13 -51 -23 -95 -27 -129 -41
-177 -63 -227 -14 -33 -17 -48 -8 -48 9 0 8 -3 -1 -9 -19 -11 -38 -51 -46 -94
-4 -21 -11 -37 -16 -37 -6 0 -10 -7 -10 -15 0 -8 -9 -31 -21 -51 -11 -20 -18
-43 -15 -51 3 -8 2 -12 -3 -9 -9 6 -67 -113 -63 -131 2 -7 -2 -13 -7 -13 -6 0
-17 -13 -26 -30 -9 -16 -13 -30 -9 -30 3 0 -6 -14 -20 -31 -14 -17 -26 -37
-26 -44 0 -8 -8 -19 -17 -24 -12 -7 -13 -10 -5 -11 13 0 6 -11 -48 -77 -6 -7
-10 -17 -10 -22 0 -6 -6 -14 -13 -18 -6 -4 -24 -24 -38 -43 -15 -19 -35 -45
-45 -57 -11 -12 -28 -34 -39 -49 -11 -15 -44 -50 -73 -78 -30 -28 -88 -84
-130 -124 -42 -39 -82 -72 -89 -72 -7 0 -13 -3 -13 -7 0 -5 -17 -19 -37 -33
-20 -14 -42 -29 -48 -35 -11 -10 -51 -33 -107 -62 -16 -8 -28 -19 -28 -24 0
-5 -3 -8 -7 -7 -16 3 -93 -34 -87 -43 3 -5 -2 -9 -11 -9 -26 0 -105 -41 -105
-56 0 -7 -8 -11 -20 -9 -10 2 -35 -7 -55 -21 -20 -13 -33 -19 -29 -12 5 7 -4
5 -19 -4 -14 -10 -33 -18 -42 -18 -8 0 -33 -11 -55 -25 -21 -14 -45 -22 -53
-19 -8 3 -31 -1 -53 -8 -24 -9 -82 -13 -149 -13 -94 1 -118 4 -163 25 l-52 24
3 51 c2 28 7 57 11 63 4 6 7 32 8 57 0 25 3 45 7 45 3 0 7 10 7 23 1 12 5 40
9 62 5 22 8 52 8 68 0 15 4 27 8 27 5 0 8 3 7 8 -1 4 2 30 6 57 4 28 9 65 12
84 2 19 6 37 9 39 2 3 0 13 -5 23 -6 11 -6 19 0 21 5 2 12 40 15 85 2 46 9
100 13 120 5 21 7 55 4 76 -4 37 5 46 25 26 15 -15 53 6 53 29 0 12 2 14 8 4
7 -10 16 -9 43 5 19 9 37 21 41 27 4 6 8 7 8 3 0 -5 24 5 53 21 28 16 75 42
102 57 98 54 135 77 135 86 0 5 6 9 14 9 14 0 96 79 96 92 0 4 11 19 25 34 14
15 23 34 21 41 -3 7 1 13 8 13 13 0 34 30 79 109 24 44 29 69 31 161 1 79 -24
160 -51 160 -7 0 -13 6 -13 14 0 8 -11 24 -25 37 -13 13 -25 29 -25 36 0 6
-12 21 -27 33 -16 12 -28 25 -28 28 0 13 -39 52 -52 52 -6 0 -15 9 -18 20 -3
11 -11 20 -16 20 -5 0 -9 6 -9 14 0 8 -3 16 -7 18 -5 2 -24 21 -43 42 -19 22
-29 36 -22 32 18 -11 14 6 -9 34 l-20 25 5 -25 c5 -21 4 -21 -9 5 -8 17 -14
36 -15 43 0 7 -12 17 -27 23 -22 8 -24 12 -13 19 8 6 10 10 4 10 -7 0 -14 11
-16 25 -3 13 -1 22 3 19 5 -3 11 8 15 23 4 15 15 37 26 49 10 11 21 38 23 59
3 21 12 43 19 49 12 9 66 158 70 191 0 6 3 12 6 15 3 3 25 45 49 95 25 49 50
95 57 102 7 7 14 18 17 25 3 9 13 4 30 -14 14 -16 31 -28 37 -28 6 0 13 -7 17
-16 8 -21 101 -114 114 -114 6 0 7 -5 4 -10 -8 -13 22 -43 35 -35 5 3 7 0 4
-8 -6 -17 40 -57 65 -57 13 0 13 -2 2 -9 -11 -7 -10 -11 6 -19 10 -6 25 -23
33 -39 15 -30 119 -137 134 -138 5 0 10 -10 11 -22 1 -13 9 -31 18 -41 9 -10
17 -25 17 -33 1 -18 35 -59 49 -59 6 0 8 -7 5 -15 -4 -9 3 -23 15 -34 11 -10
21 -30 21 -43 0 -14 6 -31 14 -38 8 -6 12 -19 9 -27 -4 -10 -2 -14 5 -9 7 4
13 -10 17 -39 4 -25 11 -45 17 -45 5 0 8 -8 6 -17 -2 -10 3 -18 10 -19 6 -1
17 -2 23 -3 5 0 7 -5 4 -11 -3 -5 1 -24 9 -42 13 -31 15 -43 17 -90 0 -10 6
-18 13 -18 14 0 30 -56 20 -71 -3 -5 0 -9 6 -9 16 0 5 -60 -22 -110 -22 -44
-155 -184 -203 -216 -14 -9 -23 -20 -20 -24 3 -4 -2 -11 -11 -14 -8 -3 -13
-10 -10 -15 3 -5 -2 -7 -13 -4 -12 3 -24 -3 -33 -16 -8 -12 -17 -19 -19 -16
-3 2 -26 -15 -51 -38 -25 -23 -49 -43 -53 -44 -13 -4 -75 -63 -75 -72 0 -5 -7
-11 -15 -15 -17 -6 -21 -36 -5 -36 6 0 10 -5 10 -11 0 -5 -4 -7 -10 -4 -5 3
-10 1 -10 -4 0 -18 34 -12 70 13 19 13 45 26 58 30 12 4 22 11 22 16 0 4 8 11
18 14 24 9 63 32 71 43 9 12 78 63 86 63 21 0 230 187 275 245 21 28 43 93 35
105 -4 6 -1 9 6 8 15 -3 19 84 5 117 -12 27 -17 46 -19 70 -1 11 -6 23 -12 27
-5 4 -10 11 -11 15 -4 26 -38 91 -46 87 -5 -3 -8 0 -7 7 3 16 -11 72 -20 79
-3 3 -21 35 -40 73 -18 37 -37 70 -42 73 -5 3 -9 14 -9 25 0 10 -4 19 -9 19
-8 0 -41 71 -41 85 1 3 -5 12 -12 19 -7 8 -24 29 -38 47 -14 18 -30 37 -35 43
-6 6 -21 28 -35 49 -14 21 -31 35 -38 32 -7 -3 -11 -1 -7 4 3 5 -11 26 -30 47
-19 20 -35 41 -35 45 0 5 -7 9 -15 9 -9 0 -18 7 -21 15 -4 8 -12 15 -19 15 -8
0 -15 10 -17 23 -2 16 -10 22 -29 22 -17 0 -25 4 -22 11 2 7 -16 33 -41 58
-25 25 -46 43 -46 40 0 -3 -28 26 -62 65 -34 39 -67 71 -72 71 -5 0 -14 8 -21
17 -11 15 -9 21 9 41 46 52 104 108 132 127 15 11 48 39 73 63 24 23 48 42 52
42 5 0 9 7 9 17 0 9 3 13 6 10 4 -3 15 -2 26 4 17 9 27 2 74 -48 29 -32 54
-61 54 -65 0 -5 6 -8 13 -8 16 -1 57 -35 57 -49 0 -13 78 -91 91 -91 6 0 7 -4
4 -10 -3 -5 -2 -10 3 -10 17 0 82 -71 82 -90 0 -10 8 -21 19 -25 13 -4 20 -18
24 -47 3 -23 13 -45 21 -50 9 -5 16 -17 16 -28 0 -10 5 -20 11 -22 6 -2 12
-13 14 -23 1 -11 8 -36 17 -55 26 -59 31 -75 30 -82 -1 -5 2 -8 8 -8 5 0 10
-8 10 -18 0 -21 18 -42 37 -42 15 0 8 127 -8 147 -6 7 -8 16 -5 21 3 5 -4 21
-15 36 -11 14 -18 30 -14 36 3 5 -5 21 -19 35 -19 19 -21 25 -9 25 14 0 14 3
-3 21 -10 11 -25 35 -34 52 -23 48 -92 147 -102 147 -5 0 -6 5 -3 10 3 6 -1
10 -9 10 -9 0 -16 5 -16 11 0 16 -48 59 -64 59 -8 0 -17 11 -20 25 -3 13 -19
31 -34 39 -33 17 -93 73 -108 101 -6 11 -29 34 -51 50 -37 29 -48 32 -114 26
-8 0 -24 -9 -35 -19 -10 -10 -33 -24 -50 -31 -18 -7 -40 -20 -50 -29 -11 -9
-37 -29 -60 -44 -66 -42 -160 -134 -195 -191 -18 -28 -36 -54 -40 -57 -13 -9
-77 -158 -71 -164 3 -3 0 -6 -8 -6 -10 0 -10 -3 0 -15 10 -12 10 -15 -2 -15
-9 0 -20 -26 -33 -76 -10 -41 -23 -78 -28 -81 -5 -3 -4 -9 3 -13 9 -5 7 -17
-7 -46 -11 -22 -19 -51 -18 -66 0 -16 -3 -28 -7 -28 -4 0 -8 -7 -8 -15 0 -9
10 -15 28 -16 23 -1 22 -2 -8 -8 -26 -4 -35 -11 -35 -26 0 -35 -12 -44 -47
-34 -17 5 -34 6 -37 4 -2 -3 1 -5 7 -5 6 0 9 -7 6 -15 -4 -8 -1 -15 5 -15 6 0
11 -7 11 -15 0 -18 20 -57 35 -67 6 -4 7 -8 3 -8 -4 0 9 -33 29 -72 38 -74 82
-128 103 -128 7 0 10 -7 6 -15 -3 -8 1 -18 8 -22 6 -5 18 -23 25 -41 8 -18 23
-39 33 -47 11 -7 17 -18 13 -24 -3 -6 1 -11 9 -11 9 0 16 -7 16 -15 0 -9 11
-20 24 -26 13 -6 29 -22 35 -35 6 -13 15 -24 20 -24 6 0 8 -6 5 -14 -3 -9 3
-20 15 -28 12 -7 21 -23 21 -36 0 -13 5 -32 10 -42 7 -13 7 -21 0 -25 -5 -3
-10 -12 -10 -19 0 -8 -10 -35 -22 -62 -12 -27 -21 -52 -21 -55 1 -3 -18 -31
-43 -62 -24 -31 -44 -61 -44 -66 0 -5 -27 -37 -60 -71 -33 -34 -60 -66 -60
-70 0 -5 -9 -12 -20 -15 -12 -4 -30 -16 -40 -28 -11 -11 -20 -16 -20 -10 0 19
-35 3 -85 -38 -26 -21 -50 -37 -54 -34 -5 2 -24 -11 -44 -29 -20 -18 -39 -30
-43 -27 -3 3 -11 -1 -17 -9 -24 -30 -37 -22 -37 24 0 24 -5 46 -11 48 -8 3 -6
14 5 36 10 19 12 32 6 32 -7 0 -7 6 0 21 9 16 8 26 -5 45 -14 22 -14 24 2 25
12 1 10 4 -7 9 -15 5 -18 8 -8 9 13 1 16 11 16 46 0 24 3 48 6 53 3 5 -1 21
-9 36 -8 14 -10 24 -5 21 14 -8 17 15 13 90 -3 54 -8 74 -23 87 -13 10 -16 18
-8 20 6 2 8 10 4 16 -12 19 -25 4 -20 -23 3 -18 0 -25 -11 -25 -9 0 -15 -9
-15 -26 0 -14 4 -23 8 -20 4 2 9 -4 9 -15 1 -11 -2 -17 -7 -14 -11 7 -20 -51
-14 -95 2 -19 5 -41 6 -47 1 -7 4 -13 8 -13 4 0 7 -7 7 -15 0 -8 -7 -15 -15
-15 -12 0 -12 -3 -2 -15 11 -13 10 -14 -5 -9 -15 6 -16 1 -11 -55 4 -34 3 -68
-1 -74 -12 -19 -11 -67 1 -67 6 0 5 -4 -3 -9 -8 -5 -16 -27 -17 -48 0 -21 -4
-45 -8 -54 -4 -9 -6 -42 -4 -73 2 -31 0 -56 -5 -56 -5 0 -7 -9 -4 -20 3 -11 2
-22 -3 -25 -10 -6 -7 -56 4 -74 6 -9 5 -12 -2 -7 -12 7 -37 -96 -29 -125 3
-10 1 -22 -5 -25 -5 -3 -8 -20 -7 -38 1 -17 -1 -38 -4 -46 -13 -35 -28 -120
-23 -128 3 -6 -1 -15 -9 -22 -8 -7 -15 -24 -14 -39 1 -14 -6 -57 -16 -96 -9
-38 -19 -90 -21 -114 -2 -24 -8 -49 -13 -55 -5 -6 -11 -27 -14 -46 -5 -32 -14
-73 -46 -198 -6 -24 -9 -47 -6 -52 3 -5 1 -11 -4 -14 -5 -4 -9 -19 -9 -34 1
-15 -7 -42 -16 -60 -9 -17 -18 -44 -20 -60 -1 -15 -8 -36 -13 -47 -9 -17 -33
-117 -35 -142 0 -5 -8 -24 -18 -43 -9 -19 -16 -43 -15 -52 2 -10 0 -18 -5 -18
-4 0 -10 -10 -13 -22 -3 -13 -17 -54 -30 -93 -14 -38 -23 -73 -20 -77 2 -5 -1
-8 -7 -8 -6 0 -10 -6 -9 -12 2 -7 -7 -33 -18 -58 -28 -60 -54 -140 -45 -140 4
0 2 -4 -4 -8 -11 -7 -52 -112 -57 -147 -2 -11 -12 -40 -24 -66 -11 -25 -26
-68 -33 -97 -8 -28 -17 -49 -22 -46 -7 5 -12 -21 -12 -68 0 -9 -4 -16 -10 -15
-5 1 -11 -2 -11 -8 -1 -5 -7 -23 -14 -39 -6 -15 -10 -33 -9 -40 1 -6 -9 -33
-22 -61 -12 -27 -26 -59 -30 -70 -4 -11 -15 -38 -23 -60 -16 -40 -40 -116 -40
-125 0 -3 -6 -11 -14 -18 -7 -7 -18 -32 -24 -55 -7 -23 -20 -51 -28 -62 -9
-11 -25 -36 -35 -55 -30 -55 -96 -141 -137 -181 -21 -21 -36 -39 -34 -41 3 -2
-23 -22 -58 -44 -34 -21 -77 -54 -95 -71 -18 -18 -39 -33 -46 -33 -8 0 -40
-16 -72 -35 -32 -20 -64 -33 -70 -31 -10 4 -29 -6 -100 -54 -25 -17 -126 -77
-163 -97 -13 -7 -29 -13 -36 -13 -8 0 -16 -8 -20 -19 -4 -13 -12 -17 -29 -14
-16 3 -28 -2 -39 -17 -8 -12 -20 -19 -26 -16 -6 4 -20 -3 -31 -14 -11 -11 -26
-20 -33 -18 -18 3 -59 -13 -90 -36 -15 -11 -38 -21 -50 -21 -26 -2 -99 -34
-109 -49 -4 -5 -22 -10 -40 -10 -18 -1 -32 -6 -31 -12 1 -7 -8 -9 -23 -6 -14
2 -32 -2 -42 -11 -9 -8 -27 -18 -38 -21 -12 -4 -34 -18 -48 -31 -29 -27 -86
-59 -86 -49 0 4 -6 1 -13 -5 -8 -6 -16 -9 -19 -6 -3 3 -22 -2 -42 -10 -20 -9
-41 -13 -47 -9 -5 3 -21 -1 -34 -10 -13 -9 -38 -16 -54 -16 -34 0 -100 -28
-119 -50 -10 -13 -11 -13 -6 2 5 15 -5 17 -33 9 -2 -1 -6 -1 -10 -2 -5 -1 -16
-6 -27 -11 -10 -6 -33 -11 -50 -13 -29 -2 -95 -24 -106 -35 -6 -6 -42 -12 -80
-14 -18 -1 -26 -7 -28 -23 -4 -24 7 -30 24 -13 7 7 11 6 11 -3 0 -8 -5 -14
-11 -15 -43 -4 -197 -37 -276 -58 -72 -20 -134 -28 -260 -34 -196 -10 -190
-10 -190 -28 0 -12 -3 -12 -16 -1 -9 7 -31 14 -48 15 -17 1 -32 3 -33 4 -2 1
-6 3 -10 4 -5 1 -12 4 -18 8 -5 3 -36 5 -69 5 -38 -1 -60 2 -63 10 -3 8 -24
11 -61 9 -32 -1 -67 1 -79 5 -15 5 -25 3 -34 -7 -12 -14 -14 -14 -26 2 -9 13
-16 15 -24 7 -7 -7 -22 -8 -38 -3 -14 4 -35 4 -46 0 -11 -4 -28 -4 -37 1 -11
6 -21 5 -30 -4 -13 -15 -48 -11 -48 5 0 5 -8 7 -18 4 -28 -9 -106 -15 -116 -8
-13 7 -176 9 -181 2 -5 -8 -125 -5 -146 4 -9 4 -34 3 -57 -2 -27 -7 -42 -6
-45 1 -2 6 -13 3 -29 -7 -23 -15 -26 -15 -31 -1 -4 8 -14 15 -22 15 -10 0 -13
-5 -9 -12 5 -7 3 -8 -6 -3 -7 4 -16 2 -22 -6 -8 -11 -9 -11 -5 2 4 12 -2 16
-24 16 -16 0 -29 -3 -29 -6 0 -3 -15 -5 -32 -4 -18 1 -33 2 -33 3 0 9 -63 7
-79 -2 -28 -16 -48 -19 -61 -9 -19 16 -64 21 -89 11 -14 -5 -26 -6 -26 -2 0 4
-12 7 -27 6 -16 -1 -28 -2 -28 -3 0 -7 -40 -9 -49 -3 -13 8 -34 9 -168 11 -54
1 -98 6 -98 11 0 6 -9 6 -25 0 -14 -5 -27 -6 -30 0 -5 8 -28 7 -64 -5 -10 -3
-24 1 -31 10 -10 12 -15 13 -21 4 -5 -9 -11 -10 -21 -2 -7 6 -26 11 -42 11
-15 0 -32 6 -37 13 -7 10 -11 11 -16 3 -10 -15 -82 -11 -114 6 -13 7 -45 14
-70 15 -25 1 -52 5 -58 10 -7 4 -28 9 -46 11 -30 2 -247 57 -285 72 -8 3 -19
4 -24 3 -5 -1 -21 3 -35 8 -14 6 -44 12 -66 15 -53 5 -95 17 -95 25 0 4 -13 8
-30 9 -16 1 -41 7 -56 12 -14 6 -30 7 -35 4 -6 -3 -16 0 -24 6 -8 7 -15 9 -15
4 0 -5 -4 -2 -9 5 -6 9 -29 16 -61 17 -28 2 -58 8 -66 15 -8 6 -17 9 -20 6 -4
-3 -13 1 -22 9 -8 9 -28 14 -46 13 -22 -2 -39 4 -55 20 -18 18 -25 20 -37 10
-11 -9 -18 -8 -32 5 -10 9 -21 13 -25 10 -3 -4 -31 3 -61 16 -30 12 -61 20
-68 18 -7 -3 -26 8 -42 23 -18 17 -46 30 -73 34 -24 3 -43 10 -43 16 0 5 -9 9
-20 9 -11 0 -20 5 -20 10 0 6 -11 10 -25 10 -14 0 -25 4 -25 9 0 5 -12 11 -27
14 -49 9 -107 34 -123 53 -8 11 -26 21 -39 22 -39 6 -71 21 -71 33 0 6 -7 8
-15 5 -9 -3 -18 1 -21 8 -3 8 -19 19 -35 25 -16 5 -29 15 -29 22 0 6 -6 9 -14
6 -18 -7 -97 31 -114 55 -7 10 -19 18 -25 18 -7 0 -29 9 -49 19 -19 11 -38 18
-41 15 -3 -3 -8 4 -12 15 -3 11 -21 25 -39 31 -19 6 -42 20 -51 30 -10 11 -26
20 -36 20 -10 0 -32 13 -49 30 -17 16 -39 30 -50 30 -21 0 -38 20 -18 21 9 0
8 2 -2 6 -8 4 -29 17 -46 30 -17 12 -33 20 -36 17 -4 -3 -9 3 -12 14 -7 21
-50 54 -75 58 -7 2 -20 12 -28 24 -9 12 -35 41 -58 65 -24 23 -46 52 -50 64
-3 11 -12 21 -19 21 -25 0 -161 146 -142 153 6 3 -2 10 -18 16 -16 6 -26 14
-23 18 10 9 -12 43 -28 43 -8 0 -15 4 -15 9 0 6 -12 23 -26 38 -15 15 -34 44
-43 63 -9 20 -33 56 -53 81 -21 25 -38 50 -38 55 0 5 -16 22 -35 37 -20 16
-33 32 -31 36 3 4 -6 29 -18 57 -13 27 -29 74 -36 104 -7 30 -18 65 -26 77 -8
12 -14 32 -14 43 0 11 -4 28 -9 38 -12 23 -33 108 -39 155 -2 20 -8 37 -13 37
-5 0 -9 13 -9 30 0 16 -7 55 -16 87 -8 32 -18 85 -20 118 -2 33 -9 71 -14 85
-11 29 -28 157 -34 254 -3 42 -10 72 -18 78 -11 6 -10 10 2 17 12 8 11 13 -5
31 -15 17 -16 20 -3 15 12 -5 15 -2 12 12 -2 10 -6 56 -9 103 -9 144 -9 145
-25 142 -11 -3 -11 1 3 16 9 10 15 21 12 24 -3 2 -7 65 -10 139 -3 74 -7 177
-9 229 -2 52 -5 97 -6 100 -1 3 -2 13 -1 23 1 9 -2 17 -8 17 -6 0 -7 11 -1 29
11 40 2 76 -23 87 -12 6 -17 9 -10 8 6 -2 16 3 21 9 12 15 12 47 0 47 -5 0 -6
5 -3 10 3 6 1 10 -4 10 -6 0 -11 8 -12 18 0 10 -3 12 -6 5 -2 -7 -11 -13 -20
-13 -12 0 -12 2 1 16 9 8 21 24 26 35 9 15 7 19 -7 19 -13 0 -14 3 -6 8 7 4
12 23 11 42 0 19 2 45 6 57 4 12 2 24 -4 28 -6 4 -8 15 -5 26 4 10 1 27 -5 36
-9 15 -11 15 -7 2 4 -13 1 -15 -14 -12 -30 8 -33 22 -7 32 13 6 16 10 8 10 -8
0 -24 -4 -34 -8 -18 -7 -18 -8 4 -29 20 -18 22 -24 10 -35 -10 -10 -11 -9 -5
2 5 9 4 12 -3 7 -9 -5 -11 -121 -2 -121 6 0 5 -63 -1 -80 -8 -20 -8 -20 -8 1
-1 11 -9 29 -19 40 -14 14 -18 34 -17 77 0 31 -3 57 -7 57 -5 0 -11 0 -14 -1
-4 0 -11 5 -16 13 -7 9 -8 8 -4 -6 4 -11 0 -24 -11 -33 -10 -8 -12 -12 -5 -8
6 3 12 1 12 -4 0 -6 -5 -11 -10 -11 -7 0 -7 -6 0 -20 6 -11 8 -20 5 -20 -4 0
-3 -6 2 -12 4 -7 8 -26 9 -43 1 -16 6 -59 11 -95 4 -36 5 -99 2 -140 -3 -41
-6 -69 -7 -62 -1 6 -9 12 -18 12 -8 0 -13 4 -10 9 6 9 -52 38 -66 33 -5 -1 -8
5 -8 13 0 9 -10 15 -26 15 -14 0 -23 4 -20 8 3 5 -6 15 -20 23 -14 7 -30 21
-35 31 -5 10 -16 18 -23 18 -7 0 -24 12 -38 28 -14 15 -46 45 -72 67 -26 21
-54 52 -62 67 -8 15 -21 28 -30 28 -8 0 -18 10 -23 23 -5 13 -34 46 -65 74
-31 27 -56 53 -56 57 0 9 -51 56 -61 56 -5 0 -11 11 -15 25 -3 14 -10 25 -14
25 -5 0 -16 18 -26 40 -10 22 -21 40 -25 40 -12 0 -22 67 -14 87 3 10 6 20 5
22 -1 2 2 7 7 10 4 3 14 24 22 46 7 22 21 49 31 60 10 11 25 40 33 65 22 66
39 100 49 100 6 0 8 5 6 12 -2 6 4 20 14 30 10 10 16 23 13 28 -4 6 -1 10 4
10 6 0 11 6 11 13 0 7 16 39 35 71 19 32 35 64 35 71 0 7 7 18 15 25 8 7 12
16 9 21 -3 5 0 9 5 9 6 0 11 6 11 13 0 8 9 22 20 32 11 10 20 21 20 25 0 4 16
34 35 65 19 32 32 62 29 66 -3 5 1 12 10 15 8 3 18 20 22 37 3 18 10 37 14 42
12 16 19 55 10 55 -4 0 -10 7 -14 15 -3 8 0 14 6 12 6 -1 13 4 16 12 3 10 0
12 -14 7 -14 -5 -16 -4 -8 4 14 14 7 50 -10 50 -20 0 -39 -17 -32 -29 4 -6 2
-11 -3 -11 -6 0 -11 -6 -11 -14 0 -8 -4 -16 -9 -18 -8 -3 -84 -115 -247 -363
-48 -72 -53 -81 -83 -136 -13 -24 -36 -62 -51 -84 -14 -22 -32 -56 -40 -75 -7
-19 -21 -46 -30 -60 -14 -23 -42 -82 -91 -195 -24 -56 -32 -95 -19 -95 6 0 8
-5 5 -11 -4 -6 -4 -26 -1 -45 6 -30 10 -34 39 -34 47 -1 67 -20 67 -67 0 -26
7 -48 20 -63 11 -13 20 -30 20 -38 0 -8 6 -12 14 -9 8 3 17 0 19 -8 3 -7 37
-38 76 -69 39 -31 71 -65 71 -74 1 -23 34 -62 54 -62 8 0 21 -9 29 -20 8 -11
17 -17 20 -13 4 3 7 -1 7 -10 0 -9 4 -17 9 -17 5 0 12 -9 16 -19 3 -11 19 -24
35 -30 17 -6 34 -21 40 -35 5 -15 16 -26 24 -26 8 0 18 -9 21 -20 3 -11 13
-20 21 -20 8 0 14 -4 14 -10 0 -5 6 -10 14 -10 8 0 22 -8 32 -17 10 -10 19
-17 21 -15 8 6 74 -29 79 -43 3 -8 13 -15 20 -15 8 0 25 -7 37 -15 20 -13 26
-13 51 0 37 19 36 19 36 -11 0 -14 5 -35 11 -46 8 -14 8 -18 0 -14 -7 5 -10
-11 -10 -46 0 -29 0 -87 0 -128 -1 -106 10 -283 18 -297 3 -6 5 -67 3 -136
l-3 -125 -57 -10 c-67 -12 -104 -12 -113 1 -4 5 -18 11 -31 12 -54 6 -144 29
-158 40 -16 13 -69 30 -84 26 -5 -1 -16 1 -25 5 -18 8 -27 11 -40 13 -6 0 -31
19 -56 41 -25 22 -70 51 -98 65 -64 30 -222 155 -222 175 0 17 -26 40 -37 34
-5 -3 -8 4 -8 15 0 14 -6 21 -20 21 -12 0 -22 9 -26 24 -3 14 -11 27 -18 29
-7 3 -23 25 -35 48 -13 24 -29 48 -37 54 -9 6 -16 17 -17 25 -2 8 -17 37 -36
63 -18 27 -34 55 -35 63 -1 8 -10 24 -19 35 -9 10 -17 23 -17 27 0 4 -14 27
-30 52 -16 25 -30 53 -30 63 0 9 -5 17 -11 17 -6 0 -9 6 -6 13 2 6 -4 21 -14
32 -10 12 -20 30 -22 40 -4 20 -11 42 -27 80 -5 11 -16 45 -26 75 -10 30 -24
63 -30 74 -7 10 -10 24 -8 31 3 6 -2 18 -11 25 -8 7 -15 23 -15 37 0 13 -4 32
-10 42 -5 10 -11 30 -14 45 -3 15 -12 52 -21 83 -9 30 -14 61 -11 68 2 7 0 17
-5 22 -5 5 -11 29 -13 53 -3 25 -10 86 -16 135 -11 93 -8 383 4 404 4 6 3 11
-2 11 -10 0 -7 27 5 60 4 8 5 19 4 23 0 4 3 16 8 25 6 11 6 24 1 32 -5 8 -5
19 -1 25 4 5 7 21 7 35 -1 14 3 28 7 31 5 4 15 35 23 70 22 98 23 100 33 113
5 6 12 23 15 38 2 14 9 36 16 47 6 12 8 21 5 21 -4 0 -3 6 2 13 4 6 8 14 9 17
2 10 17 46 38 90 11 25 20 48 18 53 -1 4 2 7 7 7 14 0 38 53 36 78 -1 12 1 20
3 17 3 -3 16 12 30 33 14 20 35 48 47 62 13 14 29 42 36 63 7 20 17 37 21 37
4 0 8 5 8 12 0 6 11 26 25 44 14 18 25 39 25 48 0 8 9 18 21 21 16 5 18 10 8
21 -9 11 -8 14 3 14 7 0 22 14 32 31 10 18 26 39 35 48 9 10 27 31 41 48 49
60 140 153 150 153 6 0 13 7 16 15 4 8 12 15 20 15 7 0 17 6 21 13 4 8 20 22
36 32 15 9 27 23 27 31 0 7 4 16 10 19 6 4 7 -1 3 -11 -7 -19 -1 -17 52 20 16
12 35 20 41 18 5 -1 20 7 31 17 11 11 38 23 59 27 22 3 50 16 63 28 13 11 20
14 16 6 -6 -10 -2 -9 12 3 17 14 26 16 41 8 11 -6 22 -8 25 -5 13 13 134 11
166 -2 26 -11 37 -12 48 -2 11 9 16 9 22 0 4 -7 15 -10 24 -6 9 3 17 2 17 -4
0 -5 14 -15 30 -22 17 -7 30 -17 30 -23 0 -6 3 -7 6 -4 4 3 15 -5 26 -18 11
-14 26 -25 34 -25 8 0 18 -8 21 -17 4 -10 17 -35 31 -57 24 -39 29 -113 7
-128 -5 -4 -10 -11 -11 -15 0 -4 -7 -28 -14 -53 -8 -25 -15 -49 -15 -55 -1 -5
-6 -20 -13 -31 -6 -12 -14 -35 -17 -52 -3 -17 -9 -42 -14 -55 -6 -14 -5 -30 1
-41 8 -14 7 -17 -1 -12 -6 4 -11 0 -11 -9 0 -10 -5 -13 -12 -9 -8 5 -9 -3 -5
-30 3 -22 2 -34 -4 -31 -5 4 -9 0 -9 -7 0 -7 -3 -24 -6 -38 -4 -20 -3 -22 5
-10 8 11 11 12 11 2 0 -8 5 -10 13 -6 7 4 9 3 4 -2 -9 -9 -13 -10 -41 -13 -9
-1 -12 -8 -8 -23 3 -13 1 -19 -5 -15 -6 4 -13 -5 -16 -21 -9 -50 -49 -183 -54
-178 -3 2 -6 15 -8 28 -7 57 -17 78 -39 78 -14 0 -17 3 -8 8 9 6 -1 22 -33 56
-25 26 -44 50 -41 54 8 13 -77 89 -105 95 -15 4 -29 16 -32 27 -3 12 -13 20
-26 20 -12 0 -21 5 -21 11 0 6 -7 9 -14 6 -10 -4 -13 -1 -9 9 3 7 0 14 -5 14
-6 0 -23 5 -39 12 -15 6 -31 11 -35 10 -5 -1 -8 3 -8 8 0 6 -6 10 -14 10 -8 0
-16 5 -18 10 -2 6 -21 13 -43 17 -22 3 -53 16 -68 29 -23 19 -32 21 -54 13
-18 -7 -30 -6 -41 3 -12 10 -16 10 -19 1 -3 -7 -13 -13 -22 -13 -20 0 -151
-128 -151 -147 0 -7 -4 -13 -9 -13 -13 0 -73 -119 -66 -130 3 -6 2 -10 -3 -10
-4 0 -16 -16 -25 -35 -9 -19 -12 -35 -7 -35 6 0 0 -17 -13 -37 -13 -21 -24
-45 -25 -53 0 -8 -10 -41 -22 -73 -12 -32 -19 -61 -16 -64 3 -4 2 -11 -3 -17
-6 -7 -12 -34 -15 -61 -2 -28 -9 -63 -15 -78 -6 -16 -9 -32 -6 -37 3 -5 1 -11
-4 -14 -5 -3 -9 -21 -9 -38 0 -18 -10 -62 -22 -98 -11 -36 -23 -80 -25 -99 -2
-18 -8 -38 -13 -45 -5 -6 -17 -38 -26 -71 -9 -33 -20 -67 -23 -75 -3 -8 -7
-21 -9 -29 -2 -13 -14 -56 -19 -71 -1 -3 -7 -18 -14 -34 -6 -16 -13 -41 -15
-57 -1 -16 -6 -32 -9 -36 -4 -3 -7 -17 -7 -30 0 -13 -5 -23 -11 -23 -5 0 -9
-8 -8 -17 2 -10 -1 -34 -6 -53 -4 -19 -9 -42 -10 -50 -1 -8 -6 -23 -10 -33 -4
-9 -5 -29 -2 -43 2 -14 1 -41 -3 -60 -4 -19 -4 -34 0 -34 5 0 7 -8 5 -17 -2
-10 -4 -18 -5 -18 -1 0 -3 -10 -6 -22 -2 -13 3 -23 12 -27 12 -5 13 -10 5 -19
-8 -10 -6 -19 5 -35 8 -12 19 -20 23 -17 5 2 8 -8 8 -23 0 -38 12 -62 29 -55
10 4 12 0 8 -11 -4 -10 -1 -16 9 -16 19 0 31 16 18 25 -6 3 -8 12 -4 20 3 8 1
15 -4 15 -14 0 -36 52 -25 59 6 3 10 31 9 61 0 30 7 91 17 135 9 44 18 91 21
105 10 50 11 55 23 77 7 12 12 32 12 45 1 13 7 39 14 58 8 19 26 67 41 105 32
84 45 122 51 154 3 14 14 50 24 80 10 31 20 70 22 86 2 17 5 32 8 35 15 15 30
52 25 60 -4 6 -2 10 4 10 6 0 9 16 7 35 -1 20 3 44 10 54 8 10 11 21 8 24 -3
3 4 35 15 73 12 37 19 69 16 72 -2 2 1 14 7 26 7 11 13 26 15 31 1 6 11 44 23
85 11 41 22 80 23 87 2 7 6 16 10 19 4 4 7 16 7 26 0 10 7 21 15 24 8 4 15 14
15 24 0 10 6 25 13 32 13 15 29 39 52 80 9 15 39 50 67 78 39 39 54 47 64 39
8 -6 21 -8 30 -5 17 6 94 -22 94 -35 0 -4 16 -10 35 -13 20 -4 33 -11 30 -16
-3 -4 8 -11 25 -15 16 -4 30 -11 30 -16 0 -5 6 -9 14 -9 7 0 25 -10 39 -22 14
-13 51 -45 81 -71 31 -27 56 -54 56 -59 0 -6 16 -26 36 -45 19 -19 33 -40 31
-46 -2 -7 0 -24 4 -39 4 -17 4 -28 -2 -28 -6 0 -5 -9 1 -21 7 -11 9 -32 6 -45
-4 -13 -2 -24 2 -24 5 0 8 -12 8 -27 -1 -16 4 -37 11 -48 15 -23 17 -85 3 -85
-5 0 -10 -11 -10 -23 0 -13 -7 -46 -15 -73 -13 -44 -13 -50 1 -61 10 -8 12
-13 4 -18 -8 -5 -6 -13 7 -27 18 -20 18 -21 -7 -13 -24 7 -24 7 -5 -8 14 -11
22 -12 27 -4 4 6 5 14 2 18 -2 4 1 9 6 11 6 2 13 19 16 37 3 19 13 46 22 60
10 14 12 22 5 18 -8 -5 -11 -1 -10 13 1 11 4 20 7 20 3 0 14 24 24 53 11 28
23 56 27 62 15 16 10 53 -8 64 -16 9 -15 10 5 11 13 0 20 4 17 10 -3 6 -2 10
3 10 5 0 15 21 22 48 7 26 19 58 27 71 10 15 13 36 10 57 -3 19 -2 34 3 34 5
0 16 13 25 29 13 26 13 32 0 44 -12 13 -12 16 7 21 12 3 19 8 16 11 -3 4 0 18
8 33 9 18 10 28 2 33 -7 4 -5 10 5 15 22 13 58 119 44 133 -8 8 -6 11 7 11 15
0 16 3 7 14 -9 10 -8 15 3 19 14 6 46 87 46 119 0 10 10 38 21 61 12 23 21 42
20 42 -1 0 2 12 8 28 6 15 13 39 15 54 3 14 9 29 13 32 11 8 17 31 16 61 -1
14 3 28 9 31 5 3 10 12 12 20 1 8 8 24 14 37 7 12 10 27 7 32 -3 6 -2 10 4 10
11 0 -27 83 -40 88 -5 2 -7 7 -4 12 3 4 1 19 -4 32 -7 17 -10 19 -14 8 -3 -8
-19 -58 -37 -110 -17 -52 -31 -106 -31 -119 1 -14 -2 -22 -5 -19 -3 4 -5 9 -4
13 0 3 -10 15 -24 26 -14 11 -28 28 -31 39 -4 11 -12 20 -20 20 -7 0 -22 10
-32 23 -20 25 -110 70 -123 62 -5 -3 -11 4 -15 15 -3 11 -13 20 -20 20 -8 0
-18 6 -22 13 -10 18 -41 29 -48 18 -5 -10 -45 -3 -45 8 1 12 35 49 56 59 33
17 104 31 109 21 8 -12 36 1 29 15 -4 6 1 4 10 -5 16 -15 25 -15 84 -3 37 8
80 16 95 19 48 8 180 77 165 86 -9 6 -7 9 10 9 24 0 65 26 117 72 16 16 33 28
38 28 4 0 7 9 7 19 0 11 9 23 20 26 11 4 18 11 15 16 -4 5 1 9 9 9 8 0 18 9
21 21 4 11 22 34 41 51 19 17 34 37 34 45 0 7 3 13 8 13 4 0 13 15 20 33 7 17
18 40 23 49 5 10 9 22 9 28 0 5 9 19 20 30 11 11 20 29 20 40 0 11 5 20 10 20
6 0 10 9 10 19 0 11 5 23 11 26 6 4 8 13 5 20 -3 8 2 19 10 25 8 7 14 19 14
26 0 8 5 14 11 14 6 0 9 7 6 15 -4 8 -2 17 4 20 5 4 7 11 4 16 -4 5 -2 9 3 9
5 0 15 19 23 43 7 23 19 48 27 56 7 7 12 26 10 42 -2 17 5 37 16 50 10 12 22
34 28 50 5 16 14 26 19 23 5 -3 12 2 16 12 4 10 0 20 -10 26 -10 5 -17 15 -17
21 0 15 36 47 53 47 7 0 23 7 35 16 13 9 26 13 29 10 9 -8 34 15 27 25 -3 5 2
6 11 3 17 -7 48 14 39 27 -3 5 1 6 9 3 8 -3 17 3 21 13 5 13 9 14 15 5 6 -10
13 -9 31 6 24 19 21 42 -6 42 -8 0 -14 5 -14 10 0 6 7 10 15 10 8 0 15 -4 15
-10 0 -5 10 -15 23 -21 l22 -12 -20 23 c-17 19 -17 22 -3 17 9 -3 19 -1 22 6
5 9 7 9 12 0 7 -15 34 -18 34 -4 0 5 9 13 20 16 11 3 20 14 20 23 0 10 -3 13
-8 7 -4 -5 -20 -10 -37 -9 -38 1 -56 -6 -49 -17 3 -5 1 -9 -5 -9 -5 0 -11 6
-14 13 -3 9 -12 6 -33 -9 -60 -42 -88 -48 -132 -25 -43 22 -52 40 -52 113 0
59 12 91 54 143 18 22 52 76 76 120 24 44 69 116 100 160 31 44 65 94 75 112
10 18 22 30 27 27 4 -3 8 2 8 11 0 9 9 28 20 42 18 24 25 23 20 -2 -1 -5 8 0
19 12 23 24 27 39 11 45 -6 2 25 48 67 103 82 105 113 160 113 199 0 27 25
100 73 212 68 157 83 179 213 308 70 70 130 126 133 126 4 0 30 23 57 51 27
27 58 55 69 60 42 20 112 63 157 97 26 20 55 37 65 38 10 2 19 8 21 13 2 6 14
11 27 11 12 0 28 7 35 15 7 9 19 14 26 11 7 -3 16 -1 19 4 4 6 19 10 34 10 16
0 34 7 41 15 7 8 16 12 21 9 5 -3 9 -1 9 3 0 5 48 11 108 12 59 2 127 4 152 5
25 1 48 -3 52 -9 4 -6 13 -2 22 10 14 18 15 19 16 2 0 -10 5 -15 10 -12 6 3
10 1 10 -4 0 -6 5 -11 11 -11 6 0 8 9 4 20 -4 13 -2 20 7 20 37 0 183 22 198
30 9 5 27 10 41 12 13 2 29 6 34 9 6 4 28 12 50 19 45 14 93 45 113 72 7 10
18 18 24 18 11 0 106 100 122 129 5 9 17 25 27 36 18 21 20 40 5 63 -7 12 -4
12 14 2 29 -16 47 1 25 24 -18 18 -13 21 15 6 14 -7 17 -6 16 8 -1 11 5 16 19
15 19 -3 19 -2 -1 8 -21 11 -22 11 -3 30 10 10 23 19 29 19 5 0 15 9 22 20 7
11 16 20 21 20 4 0 5 -5 2 -10z m-145 -110 c0 -5 -2 -10 -4 -10 -3 0 -8 5 -11
10 -3 6 -1 10 4 10 6 0 11 -4 11 -10z m-32 -85 c-3 -3 -9 2 -12 12 -6 14 -5
15 5 6 7 -7 10 -15 7 -18z m3105 -2 c-7 -2 -19 -2 -25 0 -7 3 -2 5 12 5 14 0
19 -2 13 -5z m1633 -1130 c-7 -7 -26 7 -26 19 0 6 6 6 15 -2 9 -7 13 -15 11
-17z m3260 -31 c-10 -2 -22 0 -28 6 -6 6 0 7 19 4 21 -5 23 -7 9 -10z m-10452
-1307 c-4 -8 -12 -15 -20 -15 -17 0 -18 17 -1 23 22 9 27 7 21 -8z m8504 -840
c-3 -3 -9 2 -12 12 -6 14 -5 15 5 6 7 -7 10 -15 7 -18z m39 -157 c-3 -8 -6 -5
-6 6 -1 11 2 17 5 13 3 -3 4 -12 1 -19z m-9813 -487 c-8 -9 -22 12 -17 26 6
15 7 14 13 -3 4 -10 6 -21 4 -23z m-130 10 c4 -5 -3 -7 -14 -4 -23 6 -26 13
-6 13 8 0 17 -4 20 -9z m10071 -1 c3 -5 2 -10 -4 -10 -5 0 -13 5 -16 10 -3 6
-2 10 4 10 5 0 13 -4 16 -10z m-10878 -942 c-3 -8 -6 -5 -6 6 -1 11 2 17 5 13
3 -3 4 -12 1 -19z m1016 -117 c-3 -11 -12 -22 -20 -26 -13 -5 -14 -3 -3 11 12
13 11 17 -1 25 -11 7 -9 9 8 9 16 0 20 -5 16 -19z m-43 -156 c0 -8 -2 -15 -4
-15 -2 0 -6 7 -10 15 -3 8 -1 15 4 15 6 0 10 -7 10 -15z m10150 -825 c0 -5 -4
-10 -10 -10 -5 0 -10 5 -10 10 0 6 5 10 10 10 6 0 10 -4 10 -10z m-10110 -566
c0 -8 -5 -12 -10 -9 -6 4 -8 11 -5 16 9 14 15 11 15 -7z m140 -894 c0 -5 -7
-10 -16 -10 -8 0 -12 5 -9 10 3 6 10 10 16 10 5 0 9 -4 9 -10z m9872 -27 c-16
-6 -5 -23 15 -23 9 0 25 -8 36 -17 18 -17 19 -17 32 0 13 18 14 17 20 -2 5
-18 16 -23 41 -20 4 0 10 -4 13 -10 4 -6 30 -11 59 -12 28 -1 49 -6 46 -11 -3
-4 -13 -8 -22 -8 -9 -1 -42 -9 -72 -20 -66 -23 -119 -25 -165 -6 -33 14 -44
37 -35 71 2 6 4 21 6 35 1 14 3 26 3 28 1 1 9 2 19 1 10 0 12 -3 4 -6z m-9912
-423 c0 -5 -8 -10 -17 -10 -15 0 -16 2 -3 10 19 12 20 12 20 0z m225 -728 c-3
-3 -11 0 -18 7 -9 10 -8 11 6 5 10 -3 15 -9 12 -12z m2240 -1850 c-3 -3 -11 0
-18 7 -9 10 -8 11 6 5 10 -3 15 -9 12 -12z m3580 -442 c-3 -4 2 -27 11 -51 12
-36 15 -93 15 -314 -1 -148 -3 -295 -6 -325 -3 -30 -7 -102 -10 -160 -3 -58
-7 -119 -10 -136 l-5 -31 -63 2 c-34 2 -84 8 -112 13 -101 20 -157 32 -164 36
-3 2 -45 10 -91 16 -47 6 -96 18 -109 27 -22 14 -25 14 -33 -1 -8 -14 -12 -15
-26 -4 -13 11 -14 11 -7 -2 7 -11 3 -11 -18 3 -15 10 -32 15 -37 12 -13 -8
-200 16 -200 26 0 4 -19 6 -42 4 -23 -2 -47 -1 -53 3 -5 4 -55 8 -110 9 -55 1
-116 5 -135 8 -19 3 -45 7 -58 9 -12 2 -25 6 -29 10 -3 3 -12 1 -19 -5 -8 -7
-19 -7 -31 -1 -19 11 -73 10 -90 -1 -13 -8 -108 -1 -123 8 -6 4 -17 2 -25 -5
-9 -7 -15 -8 -20 0 -3 5 -11 10 -16 10 -6 0 -8 -4 -5 -9 4 -5 -12 -1 -33 10
-22 10 -46 17 -53 14 -8 -3 -33 1 -56 9 -23 8 -42 13 -42 10 0 -9 -61 46 -86
78 -22 28 -27 56 -29 143 -1 50 -7 110 -14 134 -10 34 -10 58 -2 100 12 60 8
165 -9 220 -5 19 -9 35 -7 36 1 1 13 8 27 16 24 15 97 18 117 6 5 -3 20 0 34
7 19 10 31 10 53 1 33 -14 97 -9 108 9 5 7 8 7 8 0 0 -6 7 -11 15 -11 8 0 15
5 15 10 0 5 9 7 20 4 11 -3 20 -1 20 4 0 6 9 5 21 -2 26 -13 113 -23 106 -12
-6 9 48 11 57 2 3 -3 54 -4 113 -2 124 5 134 5 188 0 22 -2 45 -1 50 2 6 3 39
6 73 7 43 0 67 5 73 15 7 12 9 11 9 -2 0 -20 40 -19 58 1 11 13 12 13 10 0 -2
-12 9 -16 50 -17 34 -2 51 1 47 7 -7 11 129 5 146 -6 5 -3 9 -2 9 3 0 4 24 9
53 9 60 2 179 11 252 19 28 3 73 7 100 10 28 2 63 10 79 19 29 15 51 13 41 -4z"/>
<path d="M9652 16950 c0 -14 2 -19 5 -12 2 6 2 18 0 25 -3 6 -5 1 -5 -13z"/>
<path d="M7105 15460 c-3 -6 1 -7 9 -4 18 7 21 14 7 14 -6 0 -13 -4 -16 -10z"/>
<path d="M6970 14790 c0 -5 5 -10 11 -10 5 0 7 5 4 10 -3 6 -8 10 -11 10 -2 0
-4 -4 -4 -10z"/>
<path d="M13092 14534 c-17 -12 -22 -12 -22 -2 0 9 -3 9 -10 -2 -7 -12 -12
-12 -22 -2 -17 17 -48 15 -48 -2 0 -9 -9 -14 -20 -13 -11 1 -20 5 -20 10 0 5
-6 5 -13 -1 -13 -11 -84 -24 -125 -23 -13 1 -20 -4 -17 -9 3 -6 1 -10 -4 -10
-6 0 -11 6 -11 14 0 10 -10 14 -32 12 -21 -1 -32 -6 -30 -14 1 -8 -2 -11 -8
-7 -34 21 -69 23 -89 4 -18 -17 -21 -17 -21 -4 0 10 -4 13 -12 8 -7 -4 -23 -6
-36 -4 -16 2 -25 -3 -28 -16 -5 -16 -13 -19 -52 -17 -25 2 -52 -2 -59 -8 -7
-6 -13 -8 -13 -4 0 4 -10 0 -23 -9 -13 -8 -27 -12 -32 -8 -4 5 -5 0 -2 -9 5
-13 1 -18 -14 -18 -11 0 -31 -8 -46 -17 -14 -10 -32 -18 -39 -19 -8 -1 -45
-23 -83 -48 -38 -25 -74 -46 -80 -46 -7 0 -9 -5 -6 -11 4 -6 -1 -13 -11 -15
-22 -6 -98 -107 -109 -144 -4 -14 -15 -38 -24 -55 -30 -57 -31 -170 -2 -238
11 -26 20 -49 20 -52 1 -18 34 -65 50 -70 11 -3 22 -12 25 -20 3 -8 12 -15 20
-15 8 0 18 -9 21 -20 3 -11 13 -20 21 -20 8 0 14 -5 14 -11 0 -6 7 -8 16 -5 8
3 13 2 10 -2 -3 -5 4 -14 14 -22 10 -8 17 -17 14 -21 -2 -4 11 -12 30 -19 19
-6 37 -17 40 -25 3 -8 12 -15 21 -15 8 0 15 -5 15 -12 0 -9 3 -9 11 -1 16 16
39 5 39 -19 0 -14 5 -18 15 -15 8 4 17 2 20 -4 4 -5 12 -9 18 -8 14 3 69 -22
78 -35 4 -5 19 -6 33 -4 14 3 26 1 26 -4 0 -5 9 -6 20 -3 12 4 20 2 20 -5 0
-6 4 -9 9 -6 5 4 16 3 25 0 13 -5 14 -9 5 -20 -11 -14 3 -18 48 -17 7 1 11 -3
8 -7 -7 -11 68 -19 81 -9 11 9 34 -8 34 -26 0 -5 24 -10 56 -11 30 0 59 -5 62
-10 4 -5 34 -10 67 -12 33 -2 74 -6 90 -8 69 -11 91 -12 101 -3 8 6 18 4 29
-7 14 -15 22 -16 48 -6 24 9 33 9 38 0 6 -9 11 -9 23 1 10 8 21 9 33 3 10 -5
27 -7 38 -5 11 2 49 6 83 8 35 2 70 9 78 16 8 6 43 11 79 11 36 0 68 4 71 9 3
6 14 7 25 4 12 -4 21 -1 25 9 3 9 10 13 15 10 6 -3 16 -1 23 6 8 6 26 8 42 4
21 -5 25 -4 19 6 -5 8 -4 11 3 6 6 -3 23 -1 39 5 15 7 36 11 46 10 10 -1 21 7
26 21 6 13 10 20 10 15 1 -4 17 -1 36 8 20 8 33 10 30 5 -8 -13 -4 -13 39 5
20 8 41 24 48 34 6 11 17 17 25 14 7 -3 16 2 19 11 3 9 14 16 23 16 22 1 93
51 106 75 6 11 29 40 52 65 24 25 57 74 74 109 45 91 44 143 -7 266 -6 17 -15
40 -18 51 -4 12 -16 24 -28 27 -13 4 -19 11 -15 20 3 9 0 14 -8 13 -8 0 -15 3
-17 8 -8 25 -91 96 -113 98 -19 2 -25 8 -25 25 0 14 -6 23 -15 23 -8 0 -15 5
-15 10 0 6 -12 10 -27 10 -16 1 -39 7 -53 15 -14 8 -35 14 -46 15 -12 0 -24 7
-28 15 -3 8 -16 15 -28 15 -13 0 -40 9 -60 20 -21 11 -45 17 -54 13 -13 -5
-15 -3 -9 7 5 9 4 11 -3 6 -6 -4 -25 0 -41 9 -17 8 -39 15 -49 15 -11 0 -31
12 -46 27 -20 20 -29 24 -35 14 -6 -10 -12 -9 -25 5 -14 13 -22 14 -41 6 -17
-8 -27 -7 -42 3 -10 8 -25 15 -34 15 -9 0 -22 7 -29 15 -7 9 -19 14 -27 11 -7
-3 -13 -1 -13 5 0 6 -7 8 -16 5 -9 -4 -23 -1 -31 5 -10 9 -17 9 -25 1 -8 -8
-19 -7 -41 4 -18 10 -41 14 -60 10 -16 -3 -35 -1 -42 4 -9 8 -17 6 -28 -4 -8
-8 -18 -12 -22 -8 -6 7 -10 8 -36 11 -5 0 -7 6 -4 11 9 14 3 13 -23 -6z m1026
-512 c2 -12 1 -22 -3 -22 -14 0 -36 30 -30 40 10 17 30 6 33 -18z m50 -91
c-15 -5 -19 4 -11 24 6 18 7 18 13 -1 4 -10 3 -21 -2 -23z m-1904 -70 c9 -14
-5 -41 -21 -41 -8 0 -12 4 -8 9 3 5 1 12 -5 16 -6 4 -8 11 -5 16 8 12 32 12
39 0z m222 -100 c-9 -10 -16 -22 -16 -28 0 -13 -29 -38 -36 -30 -8 7 50 86 59
80 5 -3 1 -13 -7 -22z m209 -291 c-3 -5 -14 -10 -23 -9 -14 0 -13 2 3 9 27 11
27 11 20 0z m219 -38 c3 -5 -24 -9 -59 -9 -36 0 -65 3 -65 7 0 10 117 12 124
2z m109 -9 c-4 -11 0 -11 22 -3 36 14 55 13 55 -4 0 -18 -59 -29 -76 -15 -8 6
-27 9 -43 6 -21 -4 -31 -2 -35 9 -3 8 -2 13 2 10 4 -2 14 -1 22 4 22 14 59 8
53 -7z m417 -30 c0 -2 -5 -1 -12 3 -7 5 -26 7 -43 6 -28 -3 -29 -2 -10 12 17
12 22 12 42 -1 13 -9 23 -17 23 -20z m407 -49 c-3 -3 -12 -4 -19 -1 -8 3 -5 6
6 6 11 1 17 -2 13 -5z"/>
<path d="M8198 14455 c-2 -3 -33 -6 -69 -8 -35 -1 -70 -6 -77 -11 -7 -4 -19
-3 -26 3 -8 7 -24 7 -42 2 -16 -4 -44 -7 -62 -5 -18 1 -45 -2 -60 -6 -15 -5
-52 -14 -82 -21 -30 -6 -77 -22 -105 -35 -69 -32 -107 -47 -126 -49 -9 -1 -38
-15 -65 -31 -27 -16 -67 -38 -88 -49 -21 -11 -69 -48 -105 -82 -36 -35 -69
-63 -72 -63 -4 0 -9 -9 -12 -21 -3 -12 -10 -18 -16 -14 -6 3 -11 0 -11 -8 0
-8 -6 -20 -14 -26 -18 -15 -61 -101 -82 -166 -17 -48 -25 -155 -13 -155 3 0 6
-12 6 -27 -1 -45 18 -87 36 -76 4 2 7 -11 7 -29 0 -21 7 -40 20 -51 11 -9 17
-23 14 -32 -4 -10 0 -15 15 -15 13 0 26 -10 33 -25 6 -14 16 -24 22 -22 5 2
18 -4 28 -12 10 -9 22 -16 26 -17 19 -2 42 -17 42 -28 0 -7 16 -18 35 -26 19
-8 35 -18 35 -23 0 -5 9 -7 19 -4 12 3 22 -1 25 -10 4 -10 14 -13 31 -9 15 4
25 2 25 -4 0 -11 39 -29 80 -36 46 -8 118 -9 114 -2 -3 5 0 8 5 8 6 0 11 -5
11 -12 0 -6 3 -9 6 -5 3 3 16 2 29 -3 12 -5 38 -5 58 0 23 5 39 4 46 -3 8 -8
20 -8 41 0 17 6 42 8 58 4 15 -4 38 -4 52 1 14 4 41 10 60 12 19 2 39 4 43 5
5 0 5 7 1 14 -5 8 -2 7 10 -2 12 -10 20 -11 28 -3 6 6 17 8 26 5 8 -4 13 -2
10 3 -4 5 8 9 25 8 18 0 41 4 51 9 11 5 36 12 55 14 41 5 150 41 168 55 7 5
17 7 23 3 5 -3 13 1 16 9 3 9 9 14 13 12 11 -7 94 16 108 29 6 7 34 15 63 18
70 8 171 38 164 48 -3 5 2 6 10 3 13 -5 77 17 161 58 38 17 67 38 145 98 56
43 140 126 140 138 0 6 6 15 14 19 8 4 17 21 20 37 3 16 11 33 17 37 6 4 9 11
5 17 -3 6 -2 12 4 14 6 2 12 14 15 28 3 14 7 37 10 52 4 14 1 29 -4 33 -6 3
-8 17 -5 32 4 16 3 24 -3 20 -6 -4 -8 3 -6 16 3 16 -4 27 -26 42 -17 11 -31
28 -31 37 0 23 -76 96 -117 113 -18 8 -33 19 -33 24 0 6 -7 7 -17 4 -10 -4
-14 -2 -9 5 7 11 -7 17 -69 28 -22 4 -43 12 -47 18 -5 8 -13 8 -25 0 -21 -12
-56 -7 -48 7 4 5 0 9 -7 10 -7 1 -29 3 -48 6 -19 3 -52 5 -73 4 -21 0 -36 3
-33 8 3 5 -1 11 -9 15 -8 3 -15 1 -15 -5 0 -6 -8 -6 -21 1 -11 7 -52 13 -90
15 -38 2 -78 9 -88 15 -25 13 -68 13 -76 0 -5 -8 -11 -7 -20 0 -8 7 -19 9 -25
5 -6 -4 -17 -2 -24 4 -13 11 -176 10 -176 -1 0 -4 -11 -3 -24 2 -13 5 -26 7
-28 5z m-338 -305 c-11 -20 -30 -28 -30 -12 0 11 22 32 32 32 5 0 4 -9 -2 -20z
m824 -508 c2 -4 -4 -8 -14 -8 -10 0 -16 4 -14 8 3 4 9 8 14 8 5 0 11 -4 14 -8z
m-659 -122 c-3 -5 -12 -10 -18 -10 -7 0 -6 4 3 10 19 12 23 12 15 0z"/>
<path d="M10200 13569 c0 -5 -5 -7 -12 -3 -7 4 -8 3 -4 -5 6 -9 12 -9 24 1 10
7 19 14 21 15 2 2 -3 3 -12 3 -9 0 -17 -5 -17 -11z"/>
<path d="M10210 13516 c0 -13 -5 -16 -16 -12 -23 9 -50 -14 -32 -26 9 -6 6 -7
-9 -3 -18 5 -22 1 -28 -24 -4 -17 -3 -36 1 -42 4 -7 3 -9 -3 -6 -15 9 -22 -26
-10 -48 7 -13 6 -16 -3 -10 -9 6 -12 0 -8 -23 2 -17 0 -30 -6 -29 -12 3 -15
-54 -3 -71 7 -9 5 -11 -7 -6 -13 5 -16 0 -16 -25 0 -24 3 -29 18 -24 11 3 9
-1 -6 -12 -18 -13 -22 -23 -18 -41 4 -14 2 -24 -4 -24 -6 0 -9 -4 -6 -9 4 -5
2 -21 -4 -36 -8 -20 -7 -31 1 -42 10 -11 9 -13 -2 -11 -10 2 -14 -7 -14 -35 0
-20 -4 -37 -8 -37 -5 0 -8 -12 -6 -27 1 -16 -1 -35 -4 -43 -11 -30 -14 -69 -5
-63 6 3 3 -5 -5 -18 -8 -13 -18 -46 -23 -74 -4 -27 -9 -57 -11 -65 -1 -8 -4
-30 -6 -48 -2 -18 -7 -35 -10 -39 -4 -3 -2 -12 4 -20 9 -10 8 -13 -1 -13 -8 0
-11 -9 -8 -25 3 -13 1 -26 -5 -28 -5 -1 -11 -15 -12 -30 -3 -25 -18 -126 -30
-200 -3 -20 -1 -26 8 -22 6 4 4 0 -5 -8 -12 -9 -23 -46 -33 -110 -8 -53 -17
-102 -20 -109 -2 -7 -6 -31 -9 -53 -3 -22 -16 -98 -30 -169 -15 -71 -25 -134
-25 -140 1 -6 0 -18 -4 -26 -4 -12 -20 -108 -19 -117 1 -2 -3 -16 -8 -33 -6
-21 -5 -30 3 -30 8 0 8 -3 -1 -8 -7 -5 -14 -24 -16 -44 -2 -19 -6 -39 -9 -45
-11 -17 -29 -143 -23 -158 3 -8 2 -15 -3 -15 -4 0 -8 -6 -8 -12 -2 -22 -14
-102 -23 -139 -4 -21 -3 -44 3 -54 7 -13 6 -16 -2 -11 -10 7 -16 -13 -12 -38
1 -4 -3 -22 -8 -40 -15 -49 -22 -120 -27 -264 l-4 -133 27 -25 c27 -25 48 -30
58 -15 3 6 7 47 10 94 2 46 8 94 14 108 5 14 12 47 15 74 3 28 9 71 12 98 6
41 4 47 -12 48 -11 0 -14 3 -6 6 6 2 12 10 12 17 0 7 8 28 17 47 10 19 18 52
19 74 1 22 7 53 14 70 6 16 10 41 9 55 -1 14 1 32 4 40 17 46 24 78 23 103 -1
15 1 27 4 27 3 0 5 10 6 23 0 12 3 36 7 52 24 105 86 456 91 510 2 28 5 51 6
53 3 3 5 11 14 65 4 27 10 59 12 70 3 12 7 45 9 72 2 28 6 60 9 73 3 13 0 22
-7 22 -9 0 -9 2 0 8 6 4 19 48 27 97 19 106 19 108 6 100 -5 -3 -10 1 -10 10
0 10 5 15 14 12 13 -5 18 17 31 133 2 19 9 67 15 105 6 39 11 77 11 85 1 8 3
22 6 30 11 29 13 49 4 55 -6 3 -3 17 5 33 17 33 18 54 2 70 -9 9 -9 12 3 12
15 0 21 26 23 108 0 28 5 52 9 52 5 0 8 12 6 28 -1 15 1 34 4 42 3 8 8 35 11
60 2 25 7 56 10 70 11 43 10 82 -3 90 -9 5 -8 9 6 12 18 5 50 94 38 106 -3 3
-5 -3 -5 -12z m-40 -76 c0 -5 -2 -10 -4 -10 -3 0 -8 5 -11 10 -3 6 -1 10 4 10
6 0 11 -4 11 -10z m-100 -420 c0 -5 -2 -10 -4 -10 -3 0 -8 5 -11 10 -3 6 -1
10 4 10 6 0 11 -4 11 -10z m-10 -246 c0 -2 -9 -8 -19 -13 -16 -9 -18 -8 -14 8
3 12 11 17 19 14 8 -3 14 -7 14 -9z"/>
<path d="M11117 13197 c-3 -7 4 -19 15 -26 18 -11 18 -10 7 11 -16 31 -16 31
-22 15z"/>
<path d="M11136 13134 c-8 -22 -8 -26 4 -19 6 3 10 1 10 -4 0 -6 -4 -11 -8
-11 -5 0 -9 -15 -10 -34 -1 -25 3 -36 16 -39 16 -4 16 -5 0 -6 -26 -2 -23 -49
4 -72 11 -11 16 -19 10 -19 -21 0 -13 -42 8 -47 25 -7 26 -20 1 -28 -13 -4
-17 -12 -13 -30 2 -14 8 -25 13 -25 4 0 7 -10 7 -22 -4 -60 3 -129 11 -123 5
3 13 0 17 -6 4 -8 3 -9 -4 -5 -8 5 -12 0 -12 -13 0 -11 4 -22 9 -25 4 -3 7
-22 5 -43 -2 -25 0 -32 7 -23 6 10 9 -3 9 -42 0 -31 4 -59 9 -62 5 -3 7 -19 5
-36 -2 -16 1 -30 7 -30 6 0 8 -4 5 -8 -3 -5 4 -43 15 -86 11 -43 18 -84 16
-90 -3 -7 3 -29 13 -49 10 -20 16 -46 13 -57 -3 -11 -2 -28 2 -37 5 -10 7 -22
6 -27 -1 -4 6 -14 16 -22 13 -9 14 -13 4 -14 -10 0 -11 -3 -2 -14 9 -11 16
-49 20 -124 1 -7 4 -11 9 -9 4 3 6 -15 5 -39 0 -24 3 -46 8 -49 4 -3 6 -12 3
-19 -3 -7 4 -46 15 -87 11 -41 22 -94 26 -119 3 -25 10 -62 15 -82 4 -21 6
-38 3 -38 -3 0 0 -7 7 -15 7 -8 10 -15 7 -15 -3 0 -1 -17 4 -37 5 -21 11 -45
13 -54 4 -15 14 -71 21 -109 1 -8 7 -28 14 -43 6 -16 11 -39 11 -52 0 -35 59
-278 70 -289 6 -6 10 -19 10 -30 1 -12 9 -39 20 -61 11 -22 19 -47 20 -55 0
-8 11 -28 24 -43 24 -28 25 -28 51 -11 35 23 32 73 -5 91 -22 11 -20 18 4 14
5 -1 5 8 2 21 -4 13 -9 36 -10 51 -2 16 -8 33 -14 39 -7 7 -7 16 1 29 9 14 9
24 0 37 -6 11 -14 45 -18 78 -4 32 -12 67 -17 77 -5 10 -13 39 -18 65 -18 103
-32 168 -39 177 -4 6 -6 21 -5 35 1 14 -1 29 -4 35 -3 5 -7 16 -9 25 -6 39
-25 127 -31 140 -5 13 -12 44 -36 165 -2 11 -7 34 -11 50 -3 17 -9 44 -12 60
-3 17 -9 37 -14 46 -4 9 -6 19 -3 22 3 3 1 14 -5 26 -6 11 -13 39 -16 62 -3
23 -9 47 -12 53 -4 6 -10 31 -14 56 -4 25 -13 63 -19 85 -6 22 -14 51 -17 65
-2 14 -7 32 -10 40 -3 8 -7 31 -9 50 -2 19 -9 48 -14 66 -10 31 -18 60 -25 99
-3 11 -6 27 -8 35 -2 8 -7 32 -12 53 -4 20 -11 40 -16 43 -5 3 -6 16 -3 29 3
12 1 26 -5 30 -6 3 -8 11 -5 17 5 8 1 9 -12 4 -18 -7 -18 -6 -3 10 16 15 16
19 -1 57 -11 23 -15 44 -10 47 7 5 -2 65 -18 110 -3 8 -6 20 -6 25 -1 6 -7 20
-13 32 -10 17 -10 22 0 26 9 3 9 9 0 26 -7 11 -13 32 -13 46 0 26 -33 99 -49
109 -5 3 -12 -1 -15 -10z m172 -699 c-3 -3 -9 2 -12 12 -6 14 -5 15 5 6 7 -7
10 -15 7 -18z"/>
<path d="M8770 13060 c-8 -5 -35 -18 -60 -30 -25 -12 -47 -25 -50 -29 -3 -4
-34 -22 -70 -40 -36 -18 -83 -48 -105 -65 -22 -18 -48 -35 -58 -39 -9 -4 -44
-25 -77 -47 -32 -22 -66 -40 -74 -40 -9 0 -25 -9 -36 -20 -11 -11 -22 -20 -24
-20 -3 0 -70 -31 -150 -70 -79 -38 -153 -70 -164 -70 -10 0 -27 -9 -37 -20
-12 -14 -21 -17 -25 -9 -12 18 -88 -7 -95 -32 -5 -16 -9 -18 -21 -8 -12 9 -23
8 -54 -7 -22 -10 -40 -25 -40 -31 0 -7 -5 -13 -11 -13 -5 0 -7 -4 -4 -10 3 -5
1 -10 -4 -10 -6 0 -11 -5 -11 -11 0 -34 126 -99 149 -76 6 6 11 8 11 5 0 -4
16 0 35 8 19 7 55 14 81 14 40 0 45 -2 34 -15 -7 -8 -9 -15 -5 -15 4 0 3 -6
-2 -12 -9 -12 -24 -57 -28 -83 -1 -5 -5 -17 -8 -25 -13 -36 -28 -120 -31 -185
-2 -38 -5 -70 -6 -70 -1 0 -3 -42 -4 -92 -2 -53 1 -93 6 -93 5 0 6 -5 2 -12
-9 -14 -5 -141 4 -148 4 -3 8 -27 10 -53 1 -27 7 -57 12 -67 6 -10 10 -27 10
-38 0 -11 7 -22 15 -26 8 -3 15 -13 15 -21 0 -9 6 -23 14 -30 7 -8 16 -32 20
-54 3 -23 15 -50 26 -61 11 -11 20 -31 20 -46 0 -26 58 -89 93 -100 9 -3 17
-9 17 -14 0 -5 14 -7 32 -5 18 2 38 0 44 -6 7 -6 15 -6 18 -1 3 5 28 4 57 -2
39 -8 53 -8 56 1 2 6 13 9 23 6 10 -3 34 5 52 17 50 34 139 132 134 147 -3 7
-1 13 5 13 6 0 7 5 4 10 -4 6 -2 9 3 8 12 -4 69 66 78 95 4 12 15 33 25 46 10
13 16 27 14 31 -3 5 -1 11 5 15 5 3 10 19 10 36 0 16 5 29 11 29 6 0 9 6 6 13
-2 6 0 21 6 32 15 30 27 83 33 155 3 36 9 69 14 75 10 13 5 146 -8 200 -5 23
-6 50 -1 61 4 13 0 36 -11 62 -10 22 -16 43 -13 45 10 10 -18 48 -30 40 -9 -5
-9 -3 0 8 8 10 9 19 3 25 -5 5 -11 18 -13 29 -7 36 -46 115 -57 115 -6 0 -18
16 -27 35 -9 19 -23 35 -31 35 -28 0 -74 42 -69 62 4 13 1 18 -7 15 -7 -3 -34
5 -62 18 l-49 23 34 18 c58 32 108 82 115 115 3 17 10 28 16 24 5 -3 10 -2 10
4 0 6 7 8 16 4 10 -4 17 2 21 16 3 13 11 20 19 17 8 -3 14 -2 14 2 0 4 14 13
30 20 17 8 28 18 24 23 -3 5 2 9 11 9 10 0 13 5 9 12 -4 6 -3 8 4 5 21 -14
135 92 137 128 0 6 8 9 18 7 22 -4 22 17 0 34 -21 15 -32 16 -53 4z"/>
<path d="M12872 12823 c-6 -3 -10 -9 -6 -14 3 -5 -4 -9 -15 -9 -12 0 -21 4
-21 9 0 5 -16 9 -35 9 -19 0 -35 -4 -35 -8 0 -5 -7 -16 -15 -24 -14 -14 -13
-16 10 -22 13 -3 22 -10 19 -15 -3 -5 1 -9 9 -9 8 0 20 -7 27 -15 7 -8 21 -15
31 -15 11 0 19 -4 19 -10 0 -5 11 -10 25 -10 14 0 28 -6 31 -14 3 -7 23 -19
44 -26 22 -7 37 -16 35 -20 -3 -4 4 -10 15 -13 23 -6 27 -27 5 -27 -8 0 -15
-4 -15 -9 0 -5 -18 -28 -41 -52 -39 -41 -81 -120 -95 -176 -4 -16 -14 -38 -22
-51 -8 -12 -12 -25 -9 -29 4 -3 0 -20 -7 -37 -17 -41 -39 -219 -39 -321 -1
-122 13 -262 29 -293 8 -16 15 -41 16 -56 1 -14 6 -26 10 -26 4 0 8 -9 8 -20
0 -11 4 -20 8 -20 4 0 12 -15 18 -32 5 -18 15 -32 22 -31 7 2 12 -7 12 -21 0
-25 36 -96 49 -96 4 0 35 -27 69 -61 34 -33 62 -57 62 -54 0 3 12 -1 28 -9 25
-13 78 -26 112 -28 8 0 21 -5 28 -11 16 -13 60 -18 94 -11 60 12 283 203 275
235 -3 12 1 15 13 12 25 -7 85 85 97 147 16 79 19 164 10 263 -5 48 -3 77 3
77 6 0 6 9 0 25 -6 15 -6 25 0 25 5 0 7 15 4 33 -3 17 -5 47 -4 66 0 18 -3 38
-8 45 -5 6 -12 25 -15 41 -9 52 -39 125 -48 119 -5 -3 -10 0 -10 5 -1 6 -2 15
-3 19 0 5 -8 16 -17 25 -9 9 -27 38 -40 64 -12 26 -25 50 -28 53 -3 3 -11 15
-18 26 -11 20 -9 22 35 28 25 3 48 2 51 -3 9 -12 97 -23 130 -16 18 4 31 14
35 28 5 20 -8 47 -22 45 -20 -2 -32 4 -32 16 0 11 -12 13 -49 11 -27 -2 -54
-6 -60 -9 -6 -4 -9 -1 -5 7 4 11 -10 16 -58 23 -35 4 -70 8 -78 9 -25 2 -104
28 -125 42 -11 7 -28 13 -39 13 -11 0 -30 10 -43 21 -18 18 -25 20 -37 10 -12
-10 -20 -9 -38 2 -13 8 -43 13 -68 12 -25 -1 -48 3 -52 9 -4 6 -13 11 -20 12
-24 2 -58 16 -58 24 0 4 -13 10 -28 13 -25 5 -122 86 -114 95 7 7 -3 9 -16 5z"/>
<path d="M7700 12323 c0 -5 7 -17 15 -27 15 -20 20 -10 9 18 -6 16 -24 22 -24
9z"/>
<path d="M15907 12143 c-24 -23 13 -69 49 -61 12 2 11 8 -8 28 -13 13 -22 28
-20 32 3 10 -12 10 -21 1z"/>
<path d="M5391 11623 c10 -11 10 -14 2 -9 -23 13 -14 -12 9 -28 l22 -16 -24 0
c-24 -1 -24 -1 -6 -15 18 -14 21 -12 38 13 31 47 20 72 -34 72 -18 0 -19 -2
-7 -17z"/>
<path d="M5345 11483 c-8 -43 12 -67 35 -43 8 9 17 25 18 35 2 11 9 23 15 27
13 8 7 10 -35 12 -23 2 -28 -3 -33 -31z"/>
<path d="M5333 11414 c-17 -18 -16 -31 3 -38 11 -4 15 -2 11 8 -3 8 -2 16 3
18 5 2 6 8 2 14 -5 9 -10 8 -19 -2z"/>
<path d="M5580 11050 c0 -5 5 -10 10 -10 6 0 10 5 10 10 0 6 -4 10 -10 10 -5
0 -10 -4 -10 -10z"/>
<path d="M5605 11012 c-6 -4 -10 -14 -9 -22 0 -8 2 -23 2 -33 1 -10 6 -16 11
-13 5 3 12 -2 15 -11 4 -9 1 -20 -6 -25 -10 -6 -9 -8 3 -8 9 0 22 7 29 15 7 9
8 15 2 15 -5 0 -8 9 -5 19 4 16 1 19 -19 14 -22 -6 -22 -6 -5 11 25 26 10 58
-18 38z"/>
<path d="M5620 10853 c0 -15 2 -15 24 -7 22 9 20 20 -4 20 -11 0 -20 -6 -20
-13z"/>
<path d="M5632 10823 c-11 -22 -6 -73 8 -87 7 -7 10 -3 10 13 0 20 1 21 16 7
8 -9 21 -16 27 -15 8 0 8 2 -1 6 -10 4 -10 8 -1 19 6 8 7 14 2 14 -5 0 -9 10
-9 23 1 16 -4 21 -18 19 -11 -2 -15 1 -11 7 3 6 2 11 -4 11 -6 0 -14 -8 -19
-17z"/>
<path d="M11408 10545 c-66 -22 -120 -52 -226 -125 -75 -52 -185 -157 -178
-169 3 -5 -1 -8 -10 -7 -9 0 -21 -8 -28 -18 -6 -11 -20 -29 -31 -40 -45 -47
-78 -105 -80 -143 -1 -28 9 -29 28 -3 13 19 15 19 21 4 6 -15 9 -14 26 6 11
12 17 27 14 31 -3 5 4 9 15 9 12 0 21 3 21 8 0 8 57 66 140 143 30 28 100 80
155 117 55 37 102 70 103 74 2 5 14 8 26 8 13 0 34 10 47 23 14 12 33 21 42
19 10 -2 24 1 31 7 10 8 22 8 41 1 23 -9 30 -7 41 7 12 16 10 21 -16 43 -37
33 -93 34 -182 5z"/>
<path d="M10099 10250 c-6 -4 -8 -13 -5 -19 4 -6 2 -11 -4 -11 -6 0 -13 7 -16
15 -5 12 -17 14 -58 9 -28 -3 -71 -7 -96 -9 -62 -4 -62 -4 -56 -14 4 -5 -7 -4
-23 2 -41 15 -84 -4 -79 -36 3 -19 11 -23 67 -31 35 -4 66 -4 70 0 5 8 110 12
324 14 32 1 66 -2 77 -5 10 -3 21 -1 25 5 3 6 10 8 15 5 5 -3 11 -1 15 5 4 6
16 5 34 -5 16 -8 31 -12 34 -8 4 3 14 2 24 -2 10 -5 22 -7 26 -6 4 0 20 -5 36
-14 16 -8 30 -12 33 -10 2 3 23 -13 47 -35 38 -35 44 -38 57 -25 20 20 21 19
19 -7 -1 -13 0 -28 2 -34 5 -13 53 -6 53 8 0 5 5 6 12 2 7 -4 8 -3 4 4 -4 7
-16 12 -27 12 -12 0 -17 5 -14 11 7 10 -16 35 -74 79 -18 14 -46 35 -61 48
-15 12 -41 22 -56 22 -16 0 -42 7 -57 15 -16 8 -48 13 -72 12 -24 -1 -41 1
-39 5 3 5 -4 8 -16 8 -14 0 -19 -4 -14 -12 6 -10 4 -10 -8 0 -12 10 -17 10
-20 1 -3 -8 -9 -9 -18 -4 -17 11 -145 14 -161 5z"/>
<path d="M10436 9422 c-11 -18 7 -52 27 -52 11 0 18 -3 14 -6 -7 -8 42 -74 55
-74 5 0 6 6 3 13 -4 6 3 0 15 -15 12 -16 28 -28 35 -28 8 0 21 -7 30 -16 8 -9
22 -14 29 -11 8 3 17 3 20 -1 4 -3 26 -7 49 -9 49 -4 111 25 171 82 l36 34 43
-15 c23 -9 47 -17 52 -18 6 -1 16 -6 24 -10 22 -14 80 -17 101 -6 24 13 27 40
4 40 -8 0 -13 4 -10 9 3 5 -5 9 -17 9 -13 0 -42 11 -64 25 -22 14 -43 24 -46
21 -3 -3 -16 1 -29 9 -31 20 -97 21 -104 2 -4 -8 -14 -15 -23 -15 -19 0 -67
-29 -98 -59 -33 -32 -126 -30 -159 3 -8 9 -20 16 -26 16 -5 0 -19 11 -30 25
-31 39 -90 66 -102 47z"/>
<path d="M10540 9153 c0 -18 50 -64 61 -57 5 3 9 2 8 -3 -4 -24 2 -53 11 -48
6 3 10 2 10 -4 0 -6 7 -7 17 -4 11 4 14 3 9 -5 -4 -7 -1 -12 8 -12 9 0 19 0
23 -1 21 -2 10 20 -12 25 -14 4 -23 11 -20 16 7 11 -14 54 -22 46 -7 -6 -33
19 -33 32 0 15 -28 23 -36 10 -4 -7 -9 -6 -15 3 -6 10 -9 10 -9 2z"/>
<path d="M10310 9060 c-13 -24 4 -56 33 -64 13 -3 17 -10 13 -24 -4 -13 -1
-22 9 -26 8 -3 15 -14 15 -24 0 -23 35 -57 74 -72 22 -8 32 -8 45 3 9 8 22 12
29 10 6 -3 12 1 12 8 0 7 -3 9 -7 5 -9 -8 -83 64 -83 82 0 7 -4 11 -9 8 -5 -4
-7 2 -4 13 3 12 -5 26 -23 40 -15 12 -24 24 -20 28 6 6 -46 33 -65 33 -4 0
-13 -9 -19 -20z"/>
<path d="M10710 8813 c-50 -9 -130 -35 -135 -44 -4 -5 -13 -9 -20 -9 -8 0 -39
-16 -69 -35 -30 -19 -60 -35 -66 -35 -5 0 -10 -4 -10 -8 0 -5 -16 -16 -36 -26
-70 -33 -209 -149 -199 -166 2 -4 -4 -10 -15 -13 -11 -3 -23 -13 -27 -24 -4
-10 -13 -24 -20 -31 -7 -7 -13 -22 -13 -32 0 -21 46 -54 62 -44 7 5 8 3 3 -6
-6 -10 -4 -12 8 -7 10 4 24 10 32 13 8 3 15 2 15 -4 0 -6 30 -8 78 -5 42 3 92
5 109 6 18 0 31 2 29 6 -2 3 11 6 29 5 25 -1 32 2 28 12 -6 16 13 19 22 4 7
-12 48 -13 59 -2 4 4 20 8 34 8 114 6 232 17 256 25 16 5 34 5 40 1 9 -7 158
-8 246 -2 8 0 29 -2 45 -5 17 -3 46 -7 65 -9 19 -2 49 -10 65 -17 17 -7 35
-13 40 -14 6 0 22 -9 36 -18 14 -10 35 -16 45 -14 38 6 45 17 39 64 -7 56 -8
59 -48 77 -103 45 -125 56 -152 80 -16 14 -35 26 -41 26 -7 0 -15 7 -18 16 -3
8 -10 13 -15 9 -5 -3 -12 4 -16 14 -3 11 -12 18 -19 15 -8 -3 -16 3 -18 14 -3
10 -24 28 -46 40 -23 12 -50 29 -61 39 -33 30 -45 38 -84 57 -21 10 -45 15
-52 12 -8 -3 -24 4 -37 14 -14 11 -29 15 -37 11 -7 -5 -31 -4 -54 0 -23 4 -44
8 -47 7 -3 0 -16 -3 -30 -5z m169 -132 c11 -16 72 -42 83 -35 7 4 8 3 4 -4 -4
-7 -1 -12 8 -12 9 0 16 -4 16 -10 0 -5 9 -10 20 -10 11 0 20 -6 20 -13 0 -7
16 -19 35 -27 19 -7 36 -19 39 -27 3 -7 12 -13 20 -13 8 0 17 -4 20 -9 4 -5
-29 -9 -77 -8 -46 0 -87 -2 -93 -5 -12 -7 -78 -3 -92 6 -6 3 -13 2 -17 -3 -3
-6 -13 -7 -22 -4 -10 4 -14 2 -10 -4 5 -8 -4 -8 -28 -3 -19 4 -35 5 -35 1 0
-3 -20 -6 -44 -5 -25 0 -93 -7 -153 -17 -59 -10 -125 -18 -145 -19 -21 0 -38
-5 -38 -11 0 -5 -5 -7 -12 -3 -7 4 -30 7 -52 5 l-40 -2 25 24 c13 13 47 37 74
52 28 16 53 34 57 40 5 6 8 6 8 0 0 -6 4 -5 8 1 10 17 170 92 238 113 60 19
172 20 183 2z m61 -190 c0 -12 -20 -25 -27 -18 -7 7 6 27 18 27 5 0 9 -4 9 -9z
m18 -56 c-3 -3 -9 2 -12 12 -6 14 -5 15 5 6 7 -7 10 -15 7 -18z"/>
<path d="M10537 7994 c-3 -3 -3 -12 0 -20 4 -10 0 -12 -11 -8 -22 8 -46 -43
-26 -56 8 -5 18 -6 24 -3 5 3 6 1 3 -4 -13 -22 28 -29 181 -34 40 -1 75 -5 77
-9 5 -8 83 -25 97 -22 4 1 20 -3 35 -9 73 -28 132 -3 112 48 -5 14 -7 29 -4
34 4 5 -7 14 -22 21 -15 7 -31 16 -34 21 -3 4 -18 3 -33 -3 -17 -6 -25 -6 -21
0 11 17 -5 32 -21 19 -11 -9 -14 -9 -14 0 0 7 -10 11 -22 10 -13 -1 -31 1 -41
6 -10 4 -72 5 -137 2 -71 -3 -120 -2 -120 4 0 10 -14 12 -23 3z"/>
<path d="M17216 16254 c-4 -10 -1 -14 6 -12 15 5 23 28 10 28 -5 0 -13 -7 -16
-16z"/>
</g>
</svg>
